<?xml version="1.0" standalone="no"?>
<!DOCTYPE svg PUBLIC "-//W3C//DTD SVG 1.1//EN" "http://www.w3.org/Graphics/SVG/1.1/DTD/svg11.dtd" >
<!--
2013-9-30: Created.
-->
<svg>
<metadata>
Created by iconfont
</metadata>
<defs>

<font id="iconfont" horiz-adv-x="1024" >
  <font-face
    font-family="iconfont"
    font-weight="500"
    font-stretch="normal"
    units-per-em="1024"
    ascent="896"
    descent="-128"
  />
    <missing-glyph />
    
    <glyph glyph-name="x" unicode="x" horiz-adv-x="1001"
d="M281 543q-27 -1 -53 -1h-83q-18 0 -36.5 -6t-32.5 -18.5t-23 -32t-9 -45.5v-76h912v41q0 16 -0.5 30t-0.5 18q0 13 -5 29t-17 29.5t-31.5 22.5t-49.5 9h-133v-97h-438v97zM955 310v-52q0 -23 0.5 -52t0.5 -58t-10.5 -47.5t-26 -30t-33 -16t-31.5 -4.5q-14 -1 -29.5 -0.5
t-29.5 0.5h-32l-45 128h-439l-44 -128h-29h-34q-20 0 -45 1q-25 0 -41 9.5t-25.5 23t-13.5 29.5t-4 30v167h911zM163 247q-12 0 -21 -8.5t-9 -21.5t9 -21.5t21 -8.5q13 0 22 8.5t9 21.5t-9 21.5t-22 8.5zM316 123q-8 -26 -14 -48q-5 -19 -10.5 -37t-7.5 -25t-3 -15t1 -14.5
t9.5 -10.5t21.5 -4h37h67h81h80h64h36q23 0 34 12t2 38q-5 13 -9.5 30.5t-9.5 34.5q-5 19 -11 39h-368zM336 498v228q0 11 2.5 23t10 21.5t20.5 15.5t34 6h188q31 0 51.5 -14.5t20.5 -52.5v-227h-327z" />
    

    
    <glyph glyph-name="yifasong" unicode="&#58890;" d="M894.5292 691.1378H132.97529473725237c-30.0309 0-54.3973-23.9118-54.3973-53.4877v-589.1585505027591c0-29.5779 24.3655-53.6047 54.3973-53.6047h409.78896442965834c0 18.3166 1.7159 36.2304 4.9608 53.6047H171.45078584941393l260.7069 256.671 27.1987-15.6374c0.4537-0.5656 34.3941-18.7553 34.8448-19.2629 0.5706-0.5107 1.2472-0.6815 1.7599-1.1352l0.5087-0.4527c10.5963-10.4809 27.8223-10.4809 38.4185 0 3.0611 2.945 31.9576 17.1124 33.2618 20.8509l27.4815 16.206 72.8996-71.7583c15.0314 10.35 31.0862 19.3169 47.9844 26.7239l-83.3199 82.0324 261.3345 257.2976v-321.6229396469194c18.884-4.0882 37.0804-10.0122 54.3983-17.5801V637.6500732503363C948.9275 667.226 924.5591 691.1378 894.5292 691.1378zM132.9753 86.3389V599.7437737214169l260.7089-256.7309L132.9753 86.3389zM578.0108 363.5229c-0.6236-0.5077-1.4781-0.7335-2.1017-1.3571-0.6236-0.5686-0.8495-1.418-1.3621-2.0406l-60.6224-59.7215L171.4508 637.6501h684.942691505511L578.0108 363.5229zM880.5901 169.9722l-163.7557-175.0843-58.024 58.0217c-3.0021 0.7945-60.0088 19.2659-58.023-58.0217 12.0103-2.944 116.0461-116.0413 116.0461-116.0413l232.0932 232.0826C948.9275 110.9292 948.9275 171.2743 880.5901 169.9722z"  horiz-adv-x="1000" />

    
    <glyph glyph-name="shang" unicode="&#58931;" d="M209.205104 108.30098c-9.572398 0-12.391722 6.018064-6.263914 13.371542L500.701725 479.064258c6.127809 7.354502 16.15355 7.354502 22.281359 0l297.760535-357.391736c6.127809-7.354502 3.308484-13.371542-6.263914-13.371542L209.205104 108.30098z"  horiz-adv-x="1024" />

    
    <glyph glyph-name="bumenguanli" unicode="&#58891;" d="M278.475539 566.232414l21.065621 0c9.674733-0.022513 19.884677-7.557116 22.738795-16.763802l12.126675-29.402657c4.547759-8.537444 2.708802-21.109784-4.124093-27.931143L315.324258 477.222171c-6.799125-6.843872-6.799125-18.012236 0-24.855084l24.878616-24.855084c6.810382-6.821359 17.97818-6.821359 24.822332 0l14.968513 14.957667c6.800148 6.79987 19.33821 8.671497 27.831999 4.057409l29.460146-12.082176c9.228553-2.87549 16.753232-13.107529 16.753232-22.781866l0-21.020756c0-9.630335 7.902294-17.543561 17.599541-17.543561l35.111074 0c9.618449 0 17.554514 7.913227 17.554514 17.543561l0 21.020756c0 9.674337 7.57994 19.906375 16.764489 22.781866l29.426375 12.082176c8.51528 4.614088 21.088135 2.742461 27.932287-4.057409l14.868225-14.957667c6.866666-6.821359 18.012974-6.821359 24.856103 0l24.856103 24.855084c6.866666 6.843872 6.866666 18.011212 0 24.855084l-14.935766 14.912641c-6.821639 6.821359-8.694366 19.393699-4.124093 27.931143l12.105185 29.402657c2.875608 9.206686 13.15207 16.741289 22.782799 16.741289l21.088135 0c9.629706 0 17.521767 7.913227 17.521767 17.566074L717.445835 618.929614c0 9.674337-7.892061 17.566074-17.521767 17.566074l-21.088135 0c-9.674733 0-19.907191 7.557116-22.782799 16.763802l-12.105185 29.424146c-4.570273 8.493441-2.697546 21.043269 4.124093 27.886117l14.935766 14.913665c6.866666 6.865361 6.866666 18.056238 0 24.877597l-24.856103 24.832572c-6.844152 6.821359-17.989437 6.821359-24.856103 0l-14.935766-14.935154c-6.821639-6.843872-19.394494-8.694009-27.909773-4.123924l-29.381348 12.082176c-9.184549 2.854001-16.764489 13.107529-16.764489 22.781866L524.304226 812.063309c0 9.651824-7.936065 17.566074-17.554514 17.566074l-35.111074 0c-9.68599 0-17.599541-7.913227-17.599541-17.566074l0-21.065781c0-9.674337-7.524679-19.928888-16.753232-22.781866l-29.403862-12.082176c-8.52756-4.570085-21.055388-2.719948-27.877026 4.123924l-14.980793 14.935154c-6.844152 6.821359-18.012974 6.821359-24.822332 0l-24.833589-24.832572c-6.844152-6.821359-6.844152-18.011212 0-24.855084l14.913252-14.935154c6.854386-6.843872 8.716879-19.393699 4.124093-27.886117l-12.092905-29.424146c-2.864351-9.229199-13.096809-16.785292-22.771543-16.785292l-21.065621 0.021489c-9.663476 0-17.578051-7.890714-17.578051-17.566074l0-35.109636C260.897488 574.145641 268.812063 566.232414 278.475539 566.232414zM489.227946 689.191864c48.497491 0 87.798153-39.322587 87.798153-87.805812 0-48.484248-39.300661-87.784322-87.798153-87.784322-48.508748 0-87.820666 39.300075-87.820666 87.784322C401.40728 649.8703 440.720221 689.191864 489.227946 689.191864zM785.929315 167.659767 785.929315 327.44596 215.242858 327.44596l0-159.78517L101.105772 167.66079l0-228.26482 319.584457 0L420.690228 167.659767 260.897488 167.659767l0 91.306542 479.376173 0 0-91.306542-136.964913 0 0-228.26482 319.584457 0L922.893205 167.659767 785.929315 167.659767z"  horiz-adv-x="1024" />

    
    <glyph glyph-name="circularframedazi" unicode="&#59003;" d="M485.312 513.504c-7.552-38.144-18.24-75.968-32-113.472l-65.28-174.336 201.472 0L527.488 390.304C508.544 440.224 494.528 481.312 485.312 513.504zM512 780C246.848 780 32 565.152 32 300c0-265.152 214.848-480 480-480 265.152 0 480 214.848 480 480C992 565.152 777.152 780 512 780zM597.632 576.992l71.872 0L669.504 648.864l30.656 0 0-71.872 71.872 0 0-30.272-71.872 0 0-72.448-30.656 0L669.504 546.72 597.632 546.72 597.632 576.992zM683.136-18.4l-69.312 180.032L365.312 161.632l-65.28-180.032L216.576-18.4 444.8 575.904l84.736 0 243.2-594.304L683.136-18.4z"  horiz-adv-x="1024" />

    
    <glyph glyph-name="youjian" unicode="&#58911;" d="M955.002556 21.033427c1.836835 5.389754 3.056616 11.0558 3.056616 17.036002L958.059172 533.553267c0 5.678326-1.13587 11.0558-2.797719 16.202007L664.164608 300.515746 955.002556 21.033427zM511.840364 240.407764l76.673264 62.379723 38.800701 31.57002 292.323788 250.218832c-4.802376 1.426489-9.779737 2.428306-15.023158 2.428306L119.108748 587.004643c-5.256724 0-10.246365-1.001817-15.053857-2.439562l292.493657-250.351861 38.812981-31.582299L511.840364 240.407764zM904.614959-15.380924c5.025457 0 9.80532 0.930185 14.425547 2.24718L625.362884 268.956983l-113.52252-92.378967-113.341395 92.234681L104.700597-13.146023c4.615111-1.303692 9.387811-2.233877 14.408151-2.233877L904.614959-15.3799zM68.461231 549.755274c-1.661849-5.14723-2.797719-10.523681-2.797719-16.202007L65.663512 38.070452c0-5.992481 1.220804-11.658528 3.056616-17.036002l290.972001 279.360546L68.461231 549.755274z"  horiz-adv-x="1024" />

    
    <glyph glyph-name="jia" unicode="&#58920;" d="M544 684 480 684 480 332 128 332 128 268 480 268 480-84 544-84 544 268 895.936 268 895.936 332 544 332Z"  horiz-adv-x="1024" />

    
    <glyph glyph-name="youjianyidu" unicode="&#58884;" d="M512 278.124 976-212 48-212 512 278.124zM512 812 0 428l0-589.376 350.188 373.252-259.688 204L512 732l421.5-316.126L673.812 211.812 1024-157.438 1024 428 512 812z"  horiz-adv-x="1024" />

    
    <glyph glyph-name="bianji" unicode="&#58912;" d="M973.824 404.448l-47.104-46.08L797.696 486.368l47.104 46.08c14.336 14.336 36.864 16.384 49.152 4.096l84.992-82.944C990.208 441.312 988.16 418.784 973.824 404.448L973.824 404.448 973.824 404.448zM775.168 464.864l130.048-126.976L595.968 32.736c-1.024-1.024-5.12-5.12-11.264-6.144-1.024 0-1.024 0-2.048-1.024l-161.792-50.176c-4.096-1.024-9.216-1.024-12.288 2.048-3.072 3.072-4.096 7.168-2.048 12.288l51.2 158.72c0 1.024 0 1.024 1.024 2.048 1.024 5.12 5.12 11.264 7.168 12.288l59.392 54.272L328.704 217.056c-8.192 0-15.36 9.216-15.36 16.384 0 8.192 7.168 17.408 15.36 17.408l227.328 0L775.168 464.864 775.168 464.864zM556.032 42.976l-79.872 78.848-21.504-66.56 33.792-33.792L556.032 42.976 556.032 42.976zM771.072 414.688c-4.096 4.096-12.288 4.096-16.384 0L512 177.12c-5.12-4.096-5.12-12.288 0-16.384 4.096-4.096 12.288-4.096 16.384 0l241.664 237.568C775.168 402.4 775.168 409.568 771.072 414.688L771.072 414.688 771.072 414.688zM231.424-49.184c-8.192 0-16.384 3.072-16.384 11.264L215.04 609.248c-1.024 15.36 9.216 12.288 20.48 12.288l56.32 0 0-21.504c0-8.192 9.216-15.36 18.432-15.36 8.192 0 18.432 7.168 18.432 15.36l0 21.504 83.968 0 0-21.504c0-8.192 9.216-15.36 18.432-15.36 8.192 0 18.432 7.168 18.432 15.36l0 21.504 76.8 0 0-21.504c0-8.192 9.216-15.36 18.432-15.36 8.192 0 18.432 7.168 18.432 15.36l0 21.504 76.8 0 0-21.504c0-8.192 9.216-15.36 18.432-15.36 8.192 0 18.432 7.168 18.432 15.36l0 21.504 64.512 0c8.192 0 13.312-4.096 13.312-12.288l0-106.496 47.104 46.08 0 60.416c0 33.792-25.6 58.368-60.416 58.368L675.84 667.616l0 39.936c0 8.192-9.216 15.36-18.432 15.36-8.192 0-18.432-7.168-18.432-15.36l0-39.936-76.8 0 0 39.936c0 8.192-9.216 15.36-18.432 15.36-8.192 0-18.432-7.168-18.432-15.36l0-39.936-76.8 0 0 39.936c0 8.192-9.216 15.36-18.432 15.36-8.192 0-18.432-7.168-18.432-15.36l0-39.936-83.968 0 0 39.936c0 8.192-9.216 15.36-18.432 15.36-8.192 0-18.432-7.168-18.432-15.36l0-39.936L235.52 667.616c-46.08 0-68.608-24.576-68.608-58.368l0-646.144c0-33.792 30.72-58.368 65.536-58.368l507.904 0c34.816 0 60.416 24.576 60.416 58.368L800.768 186.336l-47.104-46.08 0-178.176c0-8.192-5.12-11.264-13.312-11.264M633.856 492.512 327.68 492.512c-8.192 0-14.336-10.24-14.336-17.408 0-8.192 6.144-17.408 14.336-17.408l306.176 0c8.192 0 14.336 10.24 14.336 17.408C648.192 482.272 642.048 492.512 633.856 492.512L633.856 492.512 633.856 492.512zM633.856 374.752 327.68 374.752c-8.192 0-14.336-10.24-14.336-17.408 0-8.192 6.144-17.408 14.336-17.408l306.176 0c8.192 0 14.336 10.24 14.336 17.408C648.192 364.512 642.048 374.752 633.856 374.752L633.856 374.752 633.856 374.752zM633.856 374.752"  horiz-adv-x="1024" />

    
    <glyph glyph-name="houdongfangiconfont08" unicode="&#58944;" d="M14.336 653.28C5.12 644.064 0 631.776 0 617.44l0-635.904c0-13.312 5.12-25.6 12.288-34.816l312.32 390.144L14.336 653.28zM512 148.448 381.952 281.568 15.36-54.304c9.216-8.192 20.48-14.336 32.768-14.336l927.744 0c12.288 0 23.552 5.12 32.768 14.336L642.048 281.568 512 148.448zM1007.616 655.328c-9.216 8.192-20.48 13.312-31.744 13.312L48.128 668.64c-12.288 0-23.552-5.12-31.744-13.312L512 249.824 1007.616 655.328zM698.368 336.864l312.32-390.144c8.192 9.216 12.288 20.48 12.288 34.816L1022.976 617.44c0 14.336-5.12 26.624-14.336 35.84L698.368 336.864z"  horiz-adv-x="1024" />

    
    <glyph glyph-name="people" unicode="&#58887;" d="M958.924-30.405c-0.003 136.025-78.11 252.291-188.563 299.708 53.494 38.552 88.75 104.233 88.75 178.822 0 101.833-65.685 187.059-153.85 209.222-0.818 0.214-1.585 0.1-2.331-0.211-1.004 0.1-1.975 0.333-2.996 0.333-18.835 0-34.106-16.474-34.106-36.788 0-18.349 12.494-33.428 28.783-36.203 2.899-1.275 6.702-2.246 6.852-2.303 51.056-18.689 87.801-70.751 87.801-132.136 0-68.448-45.711-125.327-106-137.233-0.086-0.007-0.158-0.175-0.243-0.221-20.056-1.367-35.985-19.167-35.985-41.137 0-22.302 16.396-40.365 36.881-41.247 0.143-0.075 0.268-0.314 0.414-0.325 121.25-13.32 207.197-124.712 207.197-260.287 0-20.067 15.090-36.338 33.7-36.338 18.157 0 32.853 15.525 33.56 34.92 0.025 0.189 0.136 0.339 0.136 0.528 0 0.068-0.021 0.136-0.021 0.218v0c0.010 0.225 0.021 0.443 0.021 0.664v0.014h-0.001zM555.112 263.272c63.882 46.16 105.96 124.649 105.96 213.807 0 142.067-106.789 257.243-238.53 257.243-131.733 0-238.53-115.176-238.53-257.243 0-89.165 42.087-167.646 105.957-213.807-132.051-56.832-225.415-195.914-225.415-358.601 0-9.162 0.482-18.178 1.132-27.15h0.060c0-19.803 14.882-35.841 33.246-35.841 18.353 0 33.239 16.039 33.239 35.841 0 1.114-0.211 2.167-0.307 3.26-0.64 7.895-1.189 15.8-1.189 23.891 0 173.802 130.64 314.687 291.803 314.687 161.166 0 291.81-140.885 291.81-314.687 0-8.387-0.55-16.636-1.235-24.815-0.003-0.429-0.115-0.815-0.115-1.242 0-0.136 0.039-0.257 0.039-0.382-0.021-0.235-0.014-0.482-0.039-0.71h0.111c0.55-19.274 15.129-34.757 33.132-34.757 18.010 0 32.589 15.474 33.139 34.757h0.072c0.625 8.973 1.071 17.999 1.071 27.136 0.006 162.7-93.354 301.781-225.412 358.614v0zM422.543 292.297c-94.628 0-171.338 82.73-171.338 184.781 0 102.047 76.71 184.778 171.338 184.778s171.338-82.73 171.338-184.778c-0-102.050-76.71-184.781-171.338-184.781v0zM422.543 292.297z"  horiz-adv-x="1024" />

    
    <glyph glyph-name="fujian" unicode="&#58906;" d="M357.773952-210.08c-70.976 0-141.376 26.88-194.688 80.192-106.496 106.432-107.584 280.896-2.432 388.864C167.565952 265.888 594.381952 693.024 600.141952 698.784c79.68 79.616 209.216 79.68 288.704 0.128 38.4-38.4 59.52-89.472 59.52-143.936-0.064-54.656-21.376-105.92-60.032-144.384l-440.96-440.896c-50.88-46.4-127.296-44.352-175.04 3.328-47.872 47.68-49.472 124.224-3.776 174.208 3.2 3.584 215.488 214.272 392.896 390.336 12.608 12.48 32.896 12.288 45.248-0.192 12.48-12.544 12.352-32.768-0.128-45.248C574.605952 361.312 323.213952 111.712 315.277952 103.584c-22.08-24.128-21.312-61.76 2.176-85.248 23.616-23.488 61.184-24.576 85.696-2.24l439.936 439.936C869.645952 482.4 884.237952 517.6 884.301952 555.04c0 37.312-14.528 72.32-40.768 98.624-54.656 54.592-143.424 54.592-198.08 0C641.421952 649.504 212.813952 220.64 206.221952 214.048c-80.576-82.752-79.744-216.896 2.112-298.688 81.536-81.6 215.552-82.752 298.688-2.176 0.768 0.704 4.288 3.904 5.12 4.48l380.48 380.8c12.48 12.48 32.768 12.48 45.248 0s12.48-32.768 0-45.248L554.765952-129.952C499.405952-183.52 428.301952-210.08 357.773952-210.08z"  horiz-adv-x="1024" />

    
    <glyph glyph-name="excel" unicode="&#59575;" d="M864 748 288 748c-52.935 0-96-43.065-96-96l0-96-64 0c-35.346 0-64-28.654-64-64l0-384c0-35.347 28.654-64 64-64l64 0 0-96c0-52.935 43.065-96 96-96l576 0c52.935 0 96 43.065 96 96L960 652C960 704.935 916.935 748 864 748zM435.612 184.388 359.02 184.388l-39.019 57.806-39.021-57.806-76.592 0 76.592 115.611-76.592 115.613 76.592 0 39.021-57.806 39.019 57.806 76.593 0L359.02 299.999 435.612 184.388zM896-52c0-17.645-14.355-32-32-32L288-84c-17.645 0-32 14.355-32 32l0 96 256 0c35.347 0 64 28.653 64 64l0 64 224 0c17.673 0 32 14.326 32 32s-14.327 32-32 32L576 236l0 64 224 0c17.673 0 32 14.326 32 32 0 17.673-14.327 32-32 32L576 364l0 64 224 0c17.673 0 32 14.326 32 32 0 17.673-14.327 32-32 32L576 492c0 35.346-28.653 64-64 64L256 556l0 96c0 17.645 14.355 32 32 32l576 0c17.645 0 32-14.355 32-32L896-52z"  horiz-adv-x="1024" />

    
    <glyph glyph-name="fujianxiazai" unicode="&#58913;" d="M124.557342 321.070898l-0.057305 0.028653M720.290395 388.583524l-0.096191 0.038886c0.26913 0.413416 0.595564 0.787946 0.845251 1.162476l-39.679721 24.095791c-0.442068-0.701988-0.903579-1.393743-1.344624-2.12336L487.861742 104.495304l-1.460258-2.363837c0.115634 0.144286 0.096191 0.403183 0.172939 0.547469-53.341882-82.933851-167.596066-109.623723-254.661004-59.529815-87.074148 50.122561-116.281353 159.40143-65.101717 243.621577-0.085958-0.115634-0.201591-0.211824-0.317225-0.298805l220.50509 352.668155c38.661531 61.844533 122.593106 81.972966 187.079816 44.877093 64.467267-37.09485 85.451184-117.636211 46.616714-179.480744l-58.990532-94.328365-0.26913 0.172939L402.603963 156.414791l-0.306992-0.461511-0.26913-0.412392c-0.306992-0.576121-0.615007-1.105171-0.921999-1.682315-0.38374-0.529049-0.729617-1.056052-1.11438-1.603521l-0.26913-0.413416-0.306992-0.460488-1.287319-2.104941c0.36532 0.557702 0.63445 1.181919 0.980327 1.690502-24.461111-35.547611-73.441663-46.270836-111.506607-24.355711-38.084387 21.877263-51.247174 68.387553-30.071899 105.838513-0.308015-0.556679-0.845251-0.959861-1.153266-1.547239l2.305509 3.756557c0.076748 0.058328 0.096191 0.153496 0.115634 0.211824l0.038886 0.037862 0.921999 1.441838L451.909925 543.593947l-40.275285 23.163559L219.500715 259.505727c-0.153496-0.278339-0.38374-0.538259-0.556679-0.797156-0.172939-0.297782-0.288572-0.61603-0.461511-0.893346l-2.363837-3.747347 0.211824-0.11461c-32.963763-58.222029-12.682857-131.538849 47.15395-165.953659 59.760059-34.414811 136.736221-17.111726 174.763302 38.20002l0.134053-0.058328 1.267876 2.066055c0.576121 0.845251 1.172709 1.604544 1.729387 2.450818 0.538259 0.845251 0.921999 1.75804 1.460258 2.622734l113.446795 181.402513 0.287549-0.172939 104.357789 166.865425 0.038886-0.201591c0.019443 0.085958 0.076748 0.144286 0.11461 0.201591 52.074006 83.260286 23.942295 191.278441-62.871933 241.229087-86.776366 49.979298-199.37791 22.961968-251.450892-60.288085-0.038886-0.057305-0.076748-0.153496-0.115634-0.239454l-0.153496-0.085958L126.161886 309.503445l-2.421142-3.8814 0.076748 0 0.297782-0.172939c-61.017702-105.175411-24.739451-238.490719 83.663468-300.882722 109.719914-63.179948 251.740488-29.707602 318.761927 74.449619l0.115634-0.058328 1.460258 2.363837c0.019443 0.028653 0.037862 0.058328 0.076748 0.086981 0.037862 0.028653 0.037862 0.085958 0.037862 0.085958L720.290395 388.583524zM720.577944 270.620879c-115.329678 0-208.851679-93.626377-208.851679-209.139228 0-115.560946 93.522-209.178113 208.851679-209.178113 115.350145 0 208.832236 93.617168 208.832236 209.178113C929.41018 176.994502 835.928089 270.620879 720.577944 270.620879zM661.202649 61.501094 661.202649 180.866692l119.364575 0 0-119.364575 59.683311 0L720.884936-57.845061 601.519338 61.501094 661.202649 61.501094z"  horiz-adv-x="1024" />

    
    <glyph glyph-name="fujianshangchuan" unicode="&#58915;" d="M124.557342 321.070898l-0.057305 0.028653M720.290395 388.583524l-0.096191 0.038886c0.26913 0.413416 0.595564 0.787946 0.845251 1.162476l-39.679721 24.095791c-0.442068-0.701988-0.903579-1.393743-1.344624-2.12336L487.861742 104.495304l-1.460258-2.363837c0.115634 0.144286 0.096191 0.403183 0.172939 0.547469-53.341882-82.933851-167.596066-109.623723-254.661004-59.529815-87.074148 50.122561-116.281353 159.40143-65.101717 243.621577-0.085958-0.115634-0.201591-0.211824-0.317225-0.298805l220.50509 352.668155c38.661531 61.844533 122.593106 81.972966 187.079816 44.877093 64.467267-37.09485 85.451184-117.636211 46.616714-179.480744l-58.990532-94.328365-0.26913 0.172939L402.603963 156.414791l-0.306992-0.461511-0.26913-0.412392c-0.306992-0.576121-0.615007-1.105171-0.921999-1.682315-0.38374-0.529049-0.729617-1.056052-1.11438-1.603521l-0.26913-0.413416-0.306992-0.460488-1.287319-2.104941c0.36532 0.557702 0.63445 1.181919 0.980327 1.690502-24.461111-35.547611-73.441663-46.270836-111.506607-24.355711-38.084387 21.877263-51.247174 68.387553-30.071899 105.838513-0.308015-0.556679-0.845251-0.959861-1.153266-1.547239l2.305509 3.756557c0.076748 0.058328 0.096191 0.153496 0.115634 0.211824l0.038886 0.037862 0.921999 1.441838L451.909925 543.593947l-40.275285 23.163559L219.500715 259.505727c-0.153496-0.278339-0.38374-0.538259-0.556679-0.797156-0.172939-0.297782-0.288572-0.61603-0.461511-0.893346l-2.363837-3.747347 0.211824-0.11461c-32.963763-58.222029-12.682857-131.538849 47.15395-165.953659 59.760059-34.414811 136.736221-17.111726 174.763302 38.20002l0.134053-0.058328 1.267876 2.066055c0.576121 0.845251 1.172709 1.604544 1.729387 2.450818 0.538259 0.845251 0.921999 1.75804 1.460258 2.622734l113.446795 181.402513 0.287549-0.172939 104.357789 166.865425 0.038886-0.201591c0.019443 0.085958 0.076748 0.144286 0.11461 0.201591 52.074006 83.260286 23.942295 191.278441-62.871933 241.229087-86.776366 49.979298-199.37791 22.961968-251.450892-60.288085-0.038886-0.057305-0.076748-0.153496-0.115634-0.239454l-0.153496-0.085958L126.161886 309.503445l-2.421142-3.8814 0.076748 0 0.297782-0.172939c-61.017702-105.175411-24.739451-238.490719 83.663468-300.882722 109.719914-63.179948 251.740488-29.707602 318.761927 74.449619l0.115634-0.058328 1.460258 2.363837c0.019443 0.028653 0.037862 0.058328 0.076748 0.086981 0.037862 0.028653 0.037862 0.085958 0.037862 0.085958L720.290395 388.583524zM720.577944 270.620879c-115.329678 0-208.851679-93.626377-208.851679-209.139228 0-115.560946 93.522-209.178113 208.851679-209.178113 115.350145 0 208.832236 93.617168 208.832236 209.178113C929.41018 176.994502 835.928089 270.620879 720.577944 270.620879zM780.568247 61.519514l0-119.364575L661.203672-57.845061 661.203672 61.519514l-59.683311 0 119.365598 119.347179L840.250534 61.519514 780.568247 61.519514z"  horiz-adv-x="1024" />

    
    <glyph glyph-name="fujianshuaxin" unicode="&#58916;" d="M124.559389 321.065781l-0.062422 0.027629M720.293465 388.583524l-0.090051 0.034792c0.261966 0.406253 0.584308 0.784876 0.846274 1.162476l-39.690978 24.097838c-0.440022-0.694825-0.901533-1.396813-1.342578-2.12643L487.852532 104.493258l-1.452071-2.360767c0.116657 0.145309 0.089028 0.405229 0.179079 0.550539-53.357232-82.932828-167.591973-109.63191-254.66612-59.536978-87.075171 50.122561-116.272143 159.402453-65.109903 243.6226-0.075725-0.116657-0.192382-0.206708-0.309038-0.295735l220.508159 352.669178c38.672788 61.8343 122.595152 81.976036 187.086979 44.87914 64.462151-37.089733 85.442998-117.647467 46.599318-179.509397l-58.992579-94.299713-0.254803 0.171915-158.851914-253.964132-0.281409-0.468674-0.268106-0.405229c-0.323365-0.584308-0.64673-1.108241-0.929162-1.692548-0.378623-0.522909-0.728594-1.045819-1.108241-1.596358l-0.288572-0.413416-0.295735-0.467651-1.280156-2.091638c0.350994 0.550539 0.61296 1.163499 0.962931 1.685385-24.448832-35.547611-73.436546-46.276976-111.496373-24.359804-38.087457 21.88238-51.257407 68.39267-30.070876 105.84056-0.323365-0.557702-0.846274-0.957815-1.169639-1.549286l2.332115 3.764744c0.062422 0.055259 0.089028 0.144286 0.116657 0.198521l0.027629 0.034792 0.907673 1.452071 192.151321 307.2395-40.241516 23.168676L219.498668 259.492424c-0.144286-0.260943-0.378623-0.522909-0.550539-0.784876-0.179079-0.295735-0.295735-0.61296-0.468674-0.908696l-2.359744-3.729951 0.206708-0.116657c-32.960693-58.222029-12.682857-131.540895 47.149856-165.954683 59.763129-34.419927 136.756687-17.10661 174.782745 38.205137l0.116657-0.062422 1.287319 2.070148c0.550539 0.846274 1.162476 1.603521 1.720178 2.443655 0.522909 0.846274 0.929162 1.75497 1.452071 2.62785l113.450888 181.402513 0.281409-0.179079 104.359836 166.862355 0.021489-0.199545c0.040932 0.082888 0.096191 0.144286 0.116657 0.199545 52.083216 83.256192 23.959691 191.284581-62.84635 241.235227-86.785575 49.978275-199.382003 22.961968-251.459079-60.293201-0.027629-0.062422-0.062422-0.145309-0.116657-0.234337l-0.144286-0.089028L126.16291 309.498328l-2.422166-3.874237 0.082888 0 0.295735-0.171915c-61.015655-105.172341-24.737404-238.495836 83.668585-300.887838 109.713774-63.168692 251.721045-29.686113 318.743508 74.454736l0.116657-0.055259 1.452071 2.360767c0.034792 0.027629 0.062422 0.055259 0.090051 0.090051 0.026606 0.033769 0.026606 0.081864 0.026606 0.081864L720.293465 388.583524zM720.582037 270.627019c-115.342981 0-208.851679-93.63354-208.851679-209.148437 0-115.542526 93.508697-209.175043 208.851679-209.175043s208.823026 93.632517 208.823026 209.175043C929.405063 176.993478 835.925019 270.627019 720.582037 270.627019zM861.770663 51.33557l-114.901936 46.366004 37.845956 24.242124c-16.081257 17.250896-38.926568 28.062126-64.304562 28.062126-48.699142 0-88.154759-39.766702-88.154759-88.808652 0-49.056276 39.45664-88.830141 88.154759-88.830141 35.259038 0 65.653279 20.86419 79.787184 50.996464l54.231135-25.177426c-23.664979-51.031257-75.012438-86.345554-134.576021-86.345554-81.975013 0-148.44796 66.967204-148.44796 149.576667 0 82.587973 66.472947 149.556201 148.44796 149.556201 46.977941 0 88.822978-21.972431 116.037806-56.274678l33.780361 21.627577L861.770663 51.33557z"  horiz-adv-x="1024" />

    
    <glyph glyph-name="wodewenjian" unicode="&#58917;" d="M796.444444 497.777778 796.444444 497.777778 113.777778 497.777778l0-455.111111c0-28.444444 22.755556-56.888889 56.888889-56.888889l341.333333 0 0-56.888889L170.666667-71.111111c-62.577778 0-113.777778 51.2-113.777778 113.777778L56.888889 725.333333c0 62.577778 51.2 113.777778 113.777778 113.777778L341.333333 839.111111c62.577778 0 113.777778-51.2 113.777778-113.777778l284.444444 0c62.577778 0 113.777778-51.2 113.777778-113.777778l0-113.777778L796.444444 497.777778 796.444444 497.777778zM796.444444 611.555556c0 28.444444-22.755556 56.888889-56.888889 56.888889L398.222222 668.444444 398.222222 725.333333c0 28.444444-22.755556 56.888889-56.888889 56.888889L170.666667 782.222222C136.533333 782.222222 113.777778 753.777778 113.777778 725.333333l0-170.666667 682.666667 0L796.444444 611.555556 796.444444 611.555556zM824.888889 162.133333c45.511111 0 85.333333 39.822222 85.333333 85.333333 0 45.511111-39.822222 85.333333-85.333333 85.333333-45.511111 0-85.333333-39.822222-85.333333-85.333333C739.555556 196.266667 773.688889 162.133333 824.888889 162.133333M824.888889 105.244444c-79.644444 0-142.222222 62.577778-142.222222 142.222222 0 79.644444 62.577778 142.222222 142.222222 142.222222 79.644444 0 142.222222-62.577778 142.222222-142.222222C967.111111 167.822222 904.533333 105.244444 824.888889 105.244444L824.888889 105.244444 824.888889 105.244444zM910.222222-14.222222c28.444444 0 45.511111 0 56.888889 0-11.377778 68.266667-68.266667 119.466667-142.222222 119.466667-73.955556 0-130.844444-51.2-142.222222-119.466667 17.066667 0 39.822222 0 68.266667 0l34.133333 0 39.822222 0 45.511111 0L910.222222-14.222222M910.222222-71.111111c-28.444444 0-56.888889 0-85.333333 0-22.755556 0-51.2 0-73.955556 0-73.955556 0-125.155556 5.688889-130.844444 34.133333 0 113.777778 91.022222 199.111111 199.111111 199.111111 113.777778 0 199.111111-91.022222 199.111111-199.111111C1024-65.422222 978.488889-71.111111 910.222222-71.111111L910.222222-71.111111 910.222222-71.111111z"  horiz-adv-x="1024" />

    
    <glyph glyph-name="fujianjiancha" unicode="&#58918;" d="M924.367327-0.28934l-59.165518 59.814294c16.949021 27.284413 26.746154 59.474556 26.746154 93.954859 0 98.487082-79.836303 178.323385-178.315198 178.323385-18.057261 0-35.486212-2.693342-51.9113-7.684006L734.481605 445.386092l-0.064468 0.049119c0.254803 0.427742 0.590448 0.815575 0.854461 1.260713l-40.942481 25.914206c-0.477884-0.75827-0.955768-1.524726-1.384533-2.298346L494.636029 139.792069l-1.52268-2.543939c0.11461 0.182149 0.099261 0.446162 0.196475 0.601704-55.067176-89.216951-172.97968-117.939109-262.821871-64.025199-89.864704 53.912887-119.996978 171.457-67.203588 262.048251-0.066515-0.12382-0.205685-0.213871-0.313132-0.313132l227.560786 379.350864c39.930431 66.545602 126.527718 88.194668 193.071274 48.272423 66.546625-39.914058 88.195691-126.527718 48.108694-193.064111l-60.870346-101.470019-0.288572 0.198521L406.631696 195.658448l-0.297782-0.494257-0.26299-0.468674c-0.338714-0.602727-0.666172-1.170662-0.988514-1.804089-0.396019-0.567935-0.757247-1.128707-1.12052-1.713015l-0.305969-0.469698-0.295735-0.494257-1.334391-2.222621c0.356111 0.584308 0.618077 1.235131 0.981351 1.803066-25.231661-38.259372-75.786057-49.779753-115.058502-26.218128-39.295981 23.557532-52.899814 73.593112-31.026644 113.868397-0.329505-0.599657-0.865717-1.062192-1.219781-1.661849l2.421142 4.034896c0.050142 0.072655 0.099261 0.164752 0.130983 0.223081l0.017396 0.022513 0.920976 1.565658L457.514573 612.131791l-41.520649 24.918529L217.683323 306.531628c-0.170892-0.296759-0.396019-0.560772-0.567935-0.856507-0.188288-0.313132-0.329505-0.642636-0.511653-0.946558l-2.420119-4.027733 0.205685-0.12382c-34.017768-62.624293-13.07683-141.498688 48.653093-178.531116 61.702294-37.024242 141.15895-18.386766 180.39865 41.101093l0.106424-0.065492 1.334391 2.231831c0.567935 0.89744 1.210571 1.722224 1.769296 2.63399 0.552585 0.914836 0.962931 1.877767 1.499144 2.800789l117.081579 195.132212 0.313132-0.156566 107.686604 179.476651 0.016373-0.213871c0.050142 0.083911 0.107447 0.157589 0.148379 0.207731 53.741995 89.585341 24.696472 205.777667-64.87352 259.518638-89.578178 53.748135-205.77869 24.704658-259.527848-64.881706-0.031722-0.049119-0.049119-0.149403-0.099261-0.23843l-0.164752-0.115634-227.378637-379.169739-2.50096-4.166903 0.088004 0 0.297782-0.164752c-62.987566-113.15413-25.520233-256.555144 86.34146-323.667657 113.24418-67.953671 259.774465-31.943526 328.946894 80.099293l0.12382-0.074701 1.52268 2.543939c0.024559 0.033769 0.049119 0.065492 0.065492 0.092098 0.023536 0.039909 0.040932 0.080841 0.050142 0.098237l2.362814 3.938706c16.062837-81.981153 88.290859-143.848199 174.98229-143.848199 37.111223 0 71.573105 11.343349 100.114139 30.747281l58.066487-58.719356c6.729262-6.727215 16.009625-10.878768 26.270317-10.878768 20.521383 0 37.156248 16.617469 37.156248 37.146015C935.238932-16.289756 931.080216-7.015531 924.367327-0.28934zM713.623555 30.288073c-68.034513 0-123.183554 55.154157-123.183554 123.192763 0 68.034513 55.149041 123.183554 123.183554 123.183554s123.192763-55.149041 123.192763-123.183554C836.816319 85.44223 781.658068 30.288073 713.623555 30.288073z"  horiz-adv-x="1024" />

    
    <glyph glyph-name="bguanlizhiwei" unicode="&#58992;" d="M346.458733 581.981097c8.15268-37.97694 42.205241-65.946968 76.806293-65.946968l88.73395 0 67.88204 0c34.602076 0 68.653613 27.971052 76.806293 65.946968l27.514657 128.174218c12.764722 59.435671-16.718777 114.094548-67.560722 114.094548L386.504798 824.249863c-50.841945 0-80.325443-54.658877-67.565838-114.094548L346.458733 581.981097zM648.663566 453.744457c-3.832282 11.493775-12.767791 20.496823-24.139793 24.333198l-44.077891 14.868639 84.21503-417.938718c36.377512 35.775808 64.890916 69.851904 64.890916 88.779999C729.551828 207.588151 668.485007 394.29446 648.663566 453.744457zM556.499493 501.02325l-32.406061 10.930957c-7.849782 2.648316-16.337083 2.648316-24.186865 0l-100.43034-33.877575c-11.372002-3.836375-20.307512-12.839423-24.139793-24.333198-19.821441-59.449997-80.888262-246.156306-80.888262-289.956881 0-41.546232 137.355321-156.070568 193.784518-201.366194 13.925151-11.177574 33.610492-11.177574 47.53462 0 26.445302 21.227464 70.663386 57.659211 110.187565 94.658893L556.499493 501.02325z"  horiz-adv-x="1024" />

    
    <glyph glyph-name="bianji1" unicode="&#59069;" d="M324.942697 330.877105c-0.663102-0.850367-1.328251-1.739621-1.623987-2.808976l-51.285037-188.023304c-2.988054-10.942213 0.076748-22.73991 8.179286-31.052227 6.058996-5.92085 14.043854-9.17701 22.552645-9.17701 2.809999 0 5.625114 0.334621 8.395204 1.074472l186.68175 50.912553c0.299829 0 0.446162-0.25992 0.667196-0.25992 2.148943 0 4.256954 0.778736 5.841032 2.406816l499.198439 499.121691c14.82873 14.849196 22.958898 35.07689 22.958898 57.07695 0 24.932856-10.571776 49.855478-29.089525 68.329225l-47.145763 47.217395c-18.491143 18.517749-43.451628 29.113061-68.373227 29.113061-21.995967 0-42.222637-8.129144-57.090253-22.941502l-499.117598-499.257791C325.169871 332.134749 325.31518 331.428667 324.942697 330.877105M954.698634 701.957609l-49.582255-49.549509-80.380702 81.655741 48.88129 48.88129c7.722892 7.768941 22.702048 6.634094 31.577183-2.26867l47.173392-47.219441c4.925173-4.919033 7.735172-11.462053 7.735172-17.928325C960.068945 710.220806 958.182992 705.407174 954.698634 701.957609M413.720649 323.031417l360.212992 360.235504 80.419588-81.716116-359.538633-359.523283L413.720649 323.031417 413.720649 323.031417 413.720649 323.031417zM348.096023 176.987203l26.028816 95.54303 69.437465-69.441559L348.096023 176.987203 348.096023 176.987203 348.096023 176.987203zM986.321866 504.159684c-18.896372 0-34.392298-15.363919-34.464953-34.515095l0-465.349517c0-24.403806-19.815301-44.217061-44.259016-44.217061L120.405277-39.921989c-24.40483 0-44.300972 19.813255-44.300972 44.217061L76.104305 763.831818c0 24.422226 19.896142 44.265156 44.300972 44.265156l507.000126 0c19.001773 0 34.419927 15.428388 34.419927 34.435277 0 18.975167-15.417131 34.426067-34.419927 34.426067L115.15367 876.958318c-59.492976 0-107.912755-48.37987-107.912755-107.912755L7.240915-0.958582c0-59.532885 48.419779-107.890242 107.912755-107.890242l797.652855 0c59.536978 0 107.930151 48.357358 107.930151 107.890242L1020.736677 469.860507C1020.664022 488.795764 1005.213122 504.159684 986.321866 504.159684"  horiz-adv-x="1027" />

    
    <glyph glyph-name="caogaoxiang" unicode="&#58922;" d="M956.593286 324.185706l-55.847959 225.948055-41.954531 0 0 79.604012-1.192152 0 0.429789 0.473791L645.187907 823.254186l0 0.214894-0.23843 0-0.521886 0.473791-0.430812-0.473791L177.190073 823.46908l0-273.335319-46.059012 0L67.159074 324.185706l-0.099261 0 0-0.349971-0.398066-1.404999 0.398066 0 0-378.373607 890.276393 0L957.336206 324.185706 956.593286 324.185706zM645.187907 774.876362l160.024623-145.138588L645.187907 629.737774 645.187907 774.876362zM213.023186 787.635967l396.331607 0 0-193.733353 213.599819 0 0-269.716908L677.696298 324.185706l1.543146-19.34151c0.073678-0.884137 0.161682-1.768273 0.248663-2.65241 0.128937-1.300622 0.249687-2.53166 0.249687-3.370771 0-62.326511-79.053474-158.436452-184.097902-158.436452-105.045451 0-184.105065 96.109941-184.105065 158.436452 0 0.839111 0.122797 2.067079 0.255827 3.370771 0.086981 0.877997 0.174985 1.76418 0.248663 2.65241l1.544169 19.34151-100.559277 0L213.02421 787.635967zM158.758282 513.296785l18.431791 0 0-189.111079-73.182766 0L158.758282 513.296785zM921.499-20.108734 102.892927-20.108734 102.892927 288.350546l173.282578 0c3.557012-39.937594 27.0204-83.674725 64.285119-119.005394 44.080961-41.785685 99.187023-64.795748 155.179268-64.795748 55.985082 0 111.096261 23.010063 155.172105 64.795748 37.269835 35.33067 60.72913 79.0678 64.290235 119.005394l206.395744 0L921.497976-20.108734zM858.789773 324.185706 858.789773 513.296785l15.349593 0 48.667419-189.111079L858.789773 324.185706z"  horiz-adv-x="1024" />

    
    <glyph glyph-name="iconset0399" unicode="&#59158;" d="M896 789.333333c0 8.533333-4.266667 14.933333-10.666667 19.2C881.066667 810.666667 793.6 853.333333 661.333333 853.333333c-85.333333 0-123.733333-12.8-157.866667-25.6C475.733333 819.2 450.133333 810.666667 405.333333 810.666667c-59.733333 0-89.6 10.666667-121.6 19.2C251.733333 842.666667 217.6 853.333333 149.333333 853.333333 136.533333 853.333333 128 844.8 128 832l0-896c0-12.8 8.533333-21.333333 21.333333-21.333333s21.333333 8.533333 21.333333 21.333333L170.666667 298.666667c46.933333-2.133333 72.533333-10.666667 100.266667-19.2 34.133333-10.666667 68.266667-23.466667 134.4-23.466667 53.333333 0 81.066667 10.666667 110.933333 19.2 34.133333 10.666667 68.266667 23.466667 145.066667 23.466667 121.6 0 202.666667-40.533333 204.8-40.533333 10.666667-4.266667 23.466667 0 27.733333 8.533333C896 270.933333 896 273.066667 896 277.333333l0 0L896 789.333333 896 789.333333zM853.333333 309.333333c-36.266667 12.8-104.533333 32-192 32-85.333333 0-123.733333-12.8-157.866667-25.6C475.733333 307.2 450.133333 298.666667 405.333333 298.666667c-59.733333 0-89.6 10.666667-121.6 19.2-29.866667 10.666667-59.733333 19.2-113.066667 21.333333L170.666667 810.666667c46.933333-2.133333 72.533333-10.666667 100.266667-19.2C302.933333 778.666667 337.066667 768 405.333333 768c53.333333 0 81.066667 10.666667 110.933333 19.2C550.4 800 584.533333 810.666667 661.333333 810.666667c93.866667 0 164.266667-23.466667 192-36.266667L853.333333 309.333333z"  horiz-adv-x="1024" />

    
    <glyph glyph-name="shang-copy" unicode="&#58883;" d="M814.795 575.699c9.571 0 12.392-6.018 6.264-13.372l-297.761-357.392c-6.128-7.355-16.154-7.355-22.281 0l-297.761 357.392c-6.128 7.355-3.309 13.372 6.264 13.372h605.275z"  horiz-adv-x="1024" />

    
    <glyph glyph-name="qizhi" unicode="&#59100;" d="M734.315789 813.082947c-72.461474 0-137.485474 17.408-181.894737 41.472C508.011789 878.672842 442.987789 896 370.526316 896 298.091789 896 233.094737 866.250105 188.631579 842.105263l0-456.057263c44.436211 24.117895 109.433263 53.894737 181.894737 53.894737 72.461474 0 137.485474-17.381053 181.894737-41.445053 44.409263-24.117895 109.433263-41.472 181.894737-41.472s137.458526 31.878737 181.894737 55.996632L916.210526 869.079579C871.774316 844.934737 806.777263 813.082947 734.315789 813.082947zM121.263158 896C98.923789 896 80.842105 877.891368 80.842105 855.578947l0-889.263158C80.842105-55.996632 98.923789-74.105263 121.263158-74.105263S161.684211-55.996632 161.684211-33.684211l0 889.263158C161.684211 877.891368 143.602526 896 121.263158 896z"  horiz-adv-x="1024" />

    
    <glyph glyph-name="75bianji" unicode="&#58959;" d="M816.762587 447.370283c-0.375553-0.376577-2.031263 0.674359-3.701299 2.339278L579.471183 683.30376c-1.670036 1.664919-2.714831 3.324722-2.343371 3.701299l52.626591 52.622498c0.376577 0.376577 2.036379-0.668219 3.701299-2.339278L867.050923 503.699196c1.664919-1.670036 2.714831-3.325745 2.339278-3.701299L816.762587 447.370283 816.762587 447.370283zM816.762587 447.370283M931.972539 695.027779 823.67195 803.328367c-27.267017 27.265994-66.552765 33.935903-96.001471 18.822694-6.191003-3.174296-11.95324-7.290033-17.070794-12.406564l-32.269961-32.270984c-2.334161-2.334161-4.439102-4.813632-6.368034-7.392364 0.37146-0.48914 0.830925-1.020236 1.362021-1.553379L897.270179 544.583348c0.493234-0.493234 0.981351-0.918929 1.440815-1.27504 2.582825 1.928932 5.068436 4.03899 7.401574 6.377244l32.270984 32.269961c5.116531 5.116531 9.232269 10.883885 12.411681 17.074887C965.908442 628.475014 959.234439 667.767925 931.972539 695.027779L931.972539 695.027779zM931.972539 695.027779M397.547807 29.605527c-1.460258-5.259794 378.662179 375.505279 378.662179 375.505279 2.696412 2.695389 4.594645 5.164626 4.242627 5.517667l-49.423643 49.424666c-0.352017 0.350994-2.822278-1.549286-5.517667-4.243651L352.77509 82.564693c-0.145309-0.151449-8.470929-4.995781-8.612145-5.14109 0 0-143.467529-41.679261-147.080823-41.909505-3.004427-0.193405-18.252713 17.070794-18.252713 17.070794s-14.283308 12.700253-14.283308 15.771195 45.566802 156.617014 45.566802 156.617014l370.94952 373.239679c2.695389 2.695389 4.614088 5.146207 4.282536 5.478781l-46.225811 46.225811c-0.326435 0.327458-2.783393-1.587148-5.478781-4.281513L156.081313 268.067594c-0.346901-0.346901-5.273097-5.336542-5.834892-7.278777L70.856279-6.963343c-3.520173-5.551436-5.565762-12.133342-5.565762-19.194154 0-19.829628 16.074094-35.908838 35.908838-35.908838 6.719028 0 13.002129 1.851161 18.378579 5.063319 0.630357-0.11154 1.839905 0.033769 3.192715 0.424672 0 0 256.611425 75.181283 260.708743 78.507028M687.649997 503.27964l-61.518099 61.519122c-0.440022 0.438998-2.954285-1.363044-5.614881-4.024663L247.6928 187.949882c-2.143826-2.143826-3.710508-4.174066-4.013407-5.116531l50.448996-11.294231c2.554172-0.9967 4.498454-3.213181 5.107321-5.938246 0.078795-0.356111 0.13303-0.717338 0.166799-1.087774l6.703679-43.506886c1.060145 0.547469 2.833535 1.969864 4.697999 3.833305L683.627381 497.664759C686.287977 500.324332 688.090019 502.839619 687.649997 503.27964L687.649997 503.27964zM687.649997 503.27964"  horiz-adv-x="1024" />

    
    <glyph glyph-name="lajixiang-copy" unicode="&#58924;" d="M832 640h-640c-17.664 0-32 14.336-32 32s14.336 32 32 32h640c17.664 0 32-14.336 32-32s-14.336-32-32-32v0zM800 0c0-35.328-28.672-64-64-64h-448c-35.328 0-64 28.672-64 64v576h576v-576zM416 800c0 17.664 14.336 32 32 32h128c17.664 0 32-14.336 32-32v-32h-192v32zM864 768h-192v64c0 35.328-28.672 64-64 64h-192c-35.328 0-64-28.672-64-64v-64h-192c-35.328 0-64-28.672-64-64v-64c0-35.328 28.672-64 64-64v-576c0-70.656 57.344-128 128-128h448c70.656 0 128 57.344 128 128v576c35.328 0 64 28.672 64 64v64c0 35.328-28.672 64-64 64v0zM512 0c17.664 0 32 14.336 32 32v384c0 17.664-14.336 32-32 32s-32-14.336-32-32v-384c0-17.664 14.336-32 32-32v0zM352 0c17.664 0 32 14.336 32 32v384c0 17.664-14.336 32-32 32s-32-14.336-32-32v-384c0-17.664 14.336-32 32-32v0zM672 0c17.664 0 32 14.336 32 32v384c0 17.664-14.336 32-32 32s-32-14.336-32-32v-384c0-17.664 14.336-32 32-32v0z"  horiz-adv-x="1024" />

    
    <glyph glyph-name="desc" unicode="&#58882;" d="M540.16 355.841h391.68c15.553 0 28.16 12.607 28.16 28.16s-12.609 28.16-28.16 28.16h-839.68c-15.553 0-28.16-12.609-28.16-28.16s12.609-28.16 28.16-28.16h448z"  horiz-adv-x="1024" />

    
    <glyph glyph-name="tianxieshenqing" unicode="&#58903;" d="M510.80529 833.25905c-248.119007 0-449.258027-201.140043-449.258027-449.258027S262.686283-65.258027 510.80529-65.258027c248.117984 0 449.25905 201.141066 449.25905 449.25905S758.923274 833.25905 510.80529 833.25905zM552.375058 323.554326l-43.980677-44.535309c-14.659885-14.293541-27.853371-27.39493-39.582507-39.305191-11.727089-11.913331-21.440311-21.719674-29.138644-29.413913-7.696286-7.696286-12.278651-12.093433-13.745049-13.192464-3.663436-3.301186-7.878434-6.782473-12.641925-10.447956-4.765537-3.664459-9.713222-6.597255-14.845103-8.79634-5.130857-2.567475-12.642948-5.679349-22.539342-9.345856-9.895371-3.664459-20.25123-7.236821-31.06246-10.722202-10.812253-3.479241-21.072945-6.504134-30.786167-9.069563-9.712199-2.565429-16.95209-4.213975-21.715581-4.948709-9.895371-1.099031-16.492626 0.366344-19.791765 4.400217-3.300162 4.02978-4.216022 10.810207-2.750647 20.340257 0.732687 5.130857 2.473331 12.551874 5.222955 22.265096 2.749624 9.712199 5.681396 19.790742 8.798387 30.237675 3.114944 10.447956 6.136767 20.067035 9.069563 28.861328 2.932796 8.798387 5.314029 14.84408 7.14677 18.143219 2.197038 5.130857 4.674463 9.804297 7.423063 14.019295 2.749624 4.214998 6.689353 8.887414 11.819187 14.020318 2.198062 2.196015 7.330966 7.41897 15.392572 15.666818 8.063653 8.246825 18.144242 18.417465 30.237675 30.510898l40.134069 40.135092 44.529169 44.528146 118.201076 118.200052 102.806457-103.353926L552.375058 323.554326zM749.742171 524.764977c-1.832741-4.762467-4.764514-9.344832-8.797363-13.744026-4.39817-4.399193-8.336876-8.246825-11.819187-11.543917-3.483334-3.300162-6.506181-6.232958-9.072633-8.797363-2.931772-2.932796-5.681396-5.498224-8.246825-7.695263L609.001753 585.790866c4.400217 4.031826 9.620102 8.886391 15.669888 14.567787 6.045693 5.681396 11.086499 10.171664 15.118326 13.468756 5.130857 4.031826 10.44284 6.871501 15.942087 8.522094 5.497201 1.651616 10.904351 2.382257 16.219403 2.202155 5.313006-0.184195 10.444886-1.010003 15.392572-2.476401 4.948709-1.466398 9.253758-3.112897 12.921287-4.946662 7.694239-4.031826 16.216333-11.087523 25.561166-21.167089 9.346879-10.076496 16.585747-20.615527 21.717627-31.610952 1.466398-3.298116 2.656503-7.145747 3.573385-11.543917s1.373277-8.980535 1.373277-13.744026C752.489748 534.295028 751.573889 529.531538 749.742171 524.764977z"  horiz-adv-x="1024" />

    
    <glyph glyph-name="youjian1" unicode="&#58952;" d="M901.557832 700.089052 122.431935 700.089052c-33.127492 0-60.042491-26.900673-60.042491-60.065004l0-509.325078c0-33.221636 26.885324-60.065004 60.042491-60.065004l779.125897 0c33.135678 0 60.051701 26.901697 60.051701 60.065004L961.609533 640.024048C961.609533 673.24773 934.724209 700.089052 901.557832 700.089052zM796.517497 485.060697l-268.550339-155.051355c-4.15667-3.541663-9.485025-5.41636-14.886035-5.328355-5.399987-0.088004-10.726296 1.786693-14.883989 5.328355l-268.551362 155.051355c-10.765181 6.205329-14.497179 19.875676-8.246825 30.706349 6.212492 10.742668 19.897166 14.488992 30.727839 8.225335l260.954337-150.661372 260.956384 150.661372c10.829649 6.263657 24.514323 2.517333 30.720675-8.225335C811.021839 504.936373 807.275515 491.266026 796.517497 485.060697z"  horiz-adv-x="1024" />

    
    <glyph glyph-name="psd" unicode="&#59085;" d="M916.555-1.301h-81.014v-20.253c0-55.905-45.352-101.268-101.267-101.268h-627.86c-55.954 0-101.267 45.363-101.267 101.268l0 810.14c0 55.925 45.313 101.267 101.267 101.267h442.433v3.075l2.849-3.075h0.296v-0.287l280.465-303.517h3.085v-3.303l1.365-1.493h-1.365v-238.245h81.014c55.915 0 101.268-45.344 101.268-101.268v-141.775c-0-55.943-45.354-101.266-101.268-101.266M551.991 817.137v-129.819c0-55.904 45.313-101.267 101.268-101.267h116.754l-218.023 231.086zM795.035 545.543h-182.283c-55.954 0-101.267 45.363-101.267 101.267v202.536h-364.564c-55.954 0-101.267-45.344-101.267-101.267l0-729.127c0-55.944 45.313-101.267 101.267-101.267h546.846c48.972 0 89.817 34.79 99.192 81.014l-463.755-0c-55.954 0-101.267 45.323-101.267 101.267l0 141.774c0 55.925 45.313 101.268 101.267 101.268h465.831l-0 202.535zM604.247 213.2c5.776 4.194 13.766 6.299 23.991 6.299 9.87 0 17.306-1.978 22.231-5.894 4.945-3.926 8.188-10.325 9.671-19.265l35.167 1.543c-0.594 15.981-6.389 28.759-17.445 38.321-11.036 9.583-27.434 14.359-49.289 14.359-13.331 0-24.783-2.007-34.257-6.032-9.414-4.055-16.674-9.95-21.697-17.663-5.024-7.694-7.536-15.981-7.536-24.833 0-13.766 5.341-25.435 16.040-35.019 7.596-6.804 20.787-12.54 39.637-17.198 14.617-3.64 23.991-6.172 28.106-7.596 6.013-2.146 10.245-4.678 12.639-7.555 2.413-2.888 3.619-6.378 3.619-10.483 0-6.409-2.868-12.036-8.585-16.813-5.776-4.786-14.24-7.15-25.573-7.15-10.701 0-19.166 2.631-25.476 8.061-6.27 5.38-10.423 13.805-12.5 25.277l-34.198-3.323c2.333-19.462 9.336-34.297 21.124-44.463s28.679-15.23 50.674-15.23c15.111 0 27.731 2.087 37.856 6.33 10.167 4.232 17.978 10.729 23.497 19.422 5.538 8.702 8.328 18.038 8.328 28.007 0 10.957-2.315 20.213-6.963 27.691-4.609 7.466-11.036 13.36-19.225 17.672-8.168 4.322-20.787 8.515-37.917 12.54-17.069 4.055-27.848 7.921-32.259 11.65-3.501 2.917-5.222 6.438-5.222 10.552 0.001 4.511 1.841 8.12 5.559 10.791M457.528 137.249c15.942 0 28.066 0.831 36.452 2.492 6.172 1.355 12.243 4.094 18.216 8.249 5.974 4.143 10.898 9.879 14.774 17.149 3.897 7.288 5.815 16.267 5.815 26.939 0 13.855-3.363 25.139-10.087 33.871-6.724 8.742-15.072 14.438-25.040 17.049-6.467 1.701-20.412 2.611-41.793 2.611h-56.349v-173.975h35.146v65.616h22.865zM875.929 198.049c-3.817 11.125-9.356 20.54-16.653 28.215-7.259 7.674-16.021 13.004-26.227 16.020-7.595 2.215-18.591 3.324-33.069 3.324h-64.223v-173.975h66.081c12.995 0 23.359 1.236 31.132 3.679 10.325 3.323 18.592 7.942 24.644 13.875 8.089 7.843 14.28 18.088 18.652 30.746 3.56 10.375 5.341 22.706 5.341 37.027-0.001 16.297-1.899 29.975-5.677 41.090M832.555 109.845c-3.738-3.401-8.506-5.814-14.201-7.248-4.352-1.098-11.452-1.662-21.243-1.662h-26.227l-0 115.242h15.764c14.319 0 23.952-0.564 28.857-1.662 6.587-1.434 11.986-4.154 16.258-8.199 4.272-4.034 7.595-9.643 9.968-16.852 2.354-7.189 3.56-17.514 3.56-30.964 0-13.449-1.208-24.091-3.56-31.883-2.373-7.792-5.399-13.369-9.176-16.772M434.663 216.177h16.931c12.658 0 21.124-0.405 25.317-1.187 5.676-1.039 10.383-3.609 14.102-7.724 3.698-4.104 5.578-9.375 5.578-15.655 0-5.182-1.325-9.662-3.976-13.529-2.65-3.867-6.329-6.725-10.977-8.546-4.688-1.818-13.944-2.739-27.769-2.739h-19.205v49.38zM173.108 448.489l133.903 190.826c0 0-86.868-12.796-163.789-163.037 32.773 246.355 304.793 304.041 353.191 286.951 19.265-14.261-46.263-131.025-46.263-131.025l-73.676-8.178 62.996-9.276-24.941-33.802-81.885-7.843 64.123-9.969c0 0-33.327-33.615-41.337-34.177-8.010-0.514-61.414-7.476-61.414-7.476s36.136-6.053 41.477-7.13c-72.628-56.042-162.384-65.863-162.384-65.863M284.938 619.388c-96.857-103.256-158.805-242.805-158.805-242.805l-12.836 7.11c-0 0 65.547 188.7 171.641 235.695z"  horiz-adv-x="1024" />

    
    <glyph glyph-name="xieyoujian" unicode="&#59151;" d="M771.456-54.624 252.544-54.624c-95.264 0-172.736 77.504-172.736 172.736L79.808 571.104c0 95.264 77.504 172.736 172.736 172.736L512 743.84c13.248 0 24-10.752 24-24s-10.752-24-24-24L252.544 695.84c-68.768 0-124.736-55.968-124.736-124.736l0-452.96c0-68.768 55.968-124.736 124.736-124.736l518.912 0c68.8 0 124.768 55.968 124.768 124.736L896.224 474.464c0 13.248 10.752 24 24 24s24-10.752 24-24l0-356.352C944.224 22.88 866.72-54.624 771.456-54.624zM441.824 192.608c-5.184 0-10.304 1.696-14.528 4.896-6.56 4.992-10.08 12.992-9.376 21.216l6.112 69.056c0.416 4.512 2.048 8.8 4.8 12.416L807.584 797.312C817.6 810.528 832 819.232 848.128 821.824c16.704 2.624 32.928-1.376 46.048-11.36 13.152-9.984 21.408-24.704 23.232-41.408 1.76-16.256-2.816-32.448-12.832-45.632L525.888 226.336c-2.752-3.616-6.464-6.368-10.72-7.968l-64.928-24.224C447.488 193.12 444.672 192.608 441.824 192.608zM506.784 240.864l0.32 0L506.784 240.864zM471.232 276.64l-2.112-24.224 22.816 8.512L866.4 752.512c2.56 3.36 3.744 7.392 3.328 11.328-0.288 2.432-1.28 5.92-4.576 8.416-3.328 2.56-7.008 2.56-9.344 2.176-3.904-0.64-7.456-2.848-10.016-6.176L471.232 276.64z"  horiz-adv-x="1024" />

    
    <glyph glyph-name="youjian2" unicode="&#58962;" d="M955.002556 105.033427c1.836835 5.389754 3.056616 11.0558 3.056616 17.036002L958.059172 617.553267c0 5.678326-1.13587 11.0558-2.797719 16.202007L664.164608 384.515746 955.002556 105.033427zM511.840364 324.407764l76.673264 62.379723 38.800701 31.57002 292.323788 250.218832c-4.802376 1.426489-9.779737 2.428306-15.023158 2.428306L119.108748 671.004643c-5.256724 0-10.246365-1.001817-15.053857-2.439562l292.493657-250.351861 38.812981-31.582299L511.840364 324.407764zM904.614959 68.619076c5.025457 0 9.80532 0.930185 14.425547 2.24718L625.362884 352.956983l-113.52252-92.378967-113.341395 92.234681L104.700597 70.853977c4.615111-1.303692 9.387811-2.233877 14.408151-2.233877L904.614959 68.6201zM68.461231 633.755274c-1.661849-5.14723-2.797719-10.523681-2.797719-16.202007L65.663512 122.070452c0-5.992481 1.220804-11.658528 3.056616-17.036002l290.972001 279.360546L68.461231 633.755274z"  horiz-adv-x="1024" />

    
    <glyph glyph-name="shoujianxiangbiaoqianlan" unicode="&#58927;" d="M832.265481 4.740741 191.734519 4.740741C138.202074 4.740741 94.814815 47.767704 94.814815 100.826074L94.814815 667.192889C94.814815 720.251259 138.202074 763.259259 191.734519 763.259259L832.265481 763.259259C885.797926 763.259259 929.185185 720.251259 929.185185 667.192889L929.185185 100.826074C929.185185 47.767704 885.797926 4.740741 832.265481 4.740741ZM891.392 650.903704C891.392 691.996444 857.960296 725.295407 816.696889 725.295407L207.303111 725.295407C166.039704 725.295407 132.608 691.996444 132.608 650.903704L132.608 117.096296C132.608 76.022519 166.039704 42.704593 207.303111 42.704593L816.696889 42.704593C857.960296 42.704593 891.392 76.022519 891.392 117.096296L891.392 650.903704ZM843.776 567.713185 529.161481 327.054222C529.009778 326.769778 529.028741 326.447407 528.858074 326.162963 523.624296 317.079704 512.018963 313.988741 502.954667 319.222519L179.579259 565.741037C170.514963 570.974815 167.405037 582.561185 172.638815 591.644444 177.891556 600.708741 189.477926 603.818667 198.542222 598.584889L510.938074 360.429037 824.869926 600.557037C833.915259 605.790815 845.482667 602.680889 850.697481 593.616593 855.931259 584.533333 852.821333 572.946963 843.776 567.713185Z"  horiz-adv-x="1024" />

    
    <glyph glyph-name="unif040" unicode="&#58919;" d="M69.994332-10.24241l0 714.678974 313.13254-292.871023-252.347988-340.761882 311.290584 285.503198 171.301919-160.250182 167.618007 156.56627 307.606672-281.819286-248.664076 337.07797 318.658408 298.396891 0-716.52093q0-14.735649-10.130759-24.866408t-23.024451-10.130759l-1020.443689 0q-14.735649 0-24.866408 10.130759t-10.130759 24.866408l0 0zM114.201279 744.959598l998.340216 0-499.170108-466.014898z"  horiz-adv-x="1229" />

    
    <glyph glyph-name="liucheng" unicode="&#59199;" d="M200.895493 768.412326c42.867751 34.587343 90.526122 61.620559 141.920083 80.47452 55.335905 20.299441 113.445433 30.591788 172.714178 30.591788 69.861517 0 137.746498-14.112906 201.769448-41.947256l17.452988-7.587508 20.474437 48.235956 57.427755-115.692048-123.113664-39.056295L708.70623 768.587321l-17.087825 7.481297c-55.969125 24.507418-115.255065 36.933088-176.212058 36.933088-98.35842 0-193.776315-33.553556-270.746885-94.848401L200.895493 768.412326zM497.824894-123.259957c-69.861517 0-137.74751 14.114929-201.770459 41.951302l-17.451976 7.587508-20.473425-48.234944-57.423709 115.691036 123.114676 39.055284-19.167536-45.155838 17.086813-7.482309c55.969125-24.506407 115.256077-36.933088 176.21307-36.933088 98.356397 0 193.770246 33.551533 270.735758 94.843344l43.767004-50.259022c-42.868763-34.587343-90.52511-61.618536-141.919071-80.472496C615.201144-112.965587 557.092628-123.259957 497.824894-123.259957zM116.373831 73.289981C59.772498 143.503511 23.263243 227.066241 10.444087 316.123616c-13.363361 92.839497-0.63322 187.436027 36.812715 273.566027l7.587508 17.450965-48.236967 20.478483L122.300402 685.044823l39.056295-123.115687-45.155838 19.167536-7.481297-17.086813c-65.88417-150.468547-43.466578-319.991339 57.90621-446.961978L116.373831 73.289981zM851.997951 196.211454l45.155838-19.167536 7.482309 17.087825c65.88417 150.469559 43.469613 319.99235-57.902164 446.961978l50.245872 43.755877c56.602344-70.21353 93.112611-153.774237 105.932779-242.830601 13.363361-92.837474 0.63322-187.436027-36.81575-273.567038l-7.587508-17.452988 48.235956-20.474437-115.692048-57.427755L851.997951 196.211454z"  horiz-adv-x="1024" />

    
    <glyph glyph-name="wodewenjian-copy" unicode="&#58929;" d="M792.652 505.363v0h-728.178v-485.452c0-30.34 24.273-60.682 60.682-60.682h364.089v-60.682h-364.089c-66.75 0-121.363 54.613-121.363 121.363v728.178c0 66.75 54.613 121.363 121.363 121.363h182.045c66.75 0 121.363-54.613 121.363-121.363h303.407c66.75 0 121.363-54.613 121.363-121.363v-121.363h-60.682zM792.652 626.726c0 30.34-24.273 60.682-60.682 60.682h-364.089v60.682c0 30.34-24.273 60.682-60.682 60.682h-182.045c-36.409 0-60.682-30.34-60.682-60.682v-182.045h728.178v60.682zM822.993 147.342c48.545 0 91.022 42.477 91.022 91.022s-42.477 91.022-91.022 91.022c-48.545 0-91.022-42.477-91.022-91.022 0-54.613 36.409-91.022 91.022-91.022M822.993 86.66c-84.954 0-151.703 66.75-151.703 151.703s66.75 151.703 151.703 151.703c84.954 0 151.703-66.75 151.703-151.703 0-84.954-66.75-151.703-151.703-151.703v0 0zM914.015-40.77c30.34 0 48.545 0 60.682 0-12.137 72.818-72.818 127.431-151.703 127.431-78.886 0-139.567-54.613-151.703-127.431 18.205 0 42.477 0 72.818 0h169.908M914.015-101.452c-30.34 0-60.682 0-91.022 0-24.273 0-54.613 0-78.886 0-78.886 0-133.5 6.068-139.567 36.409 0 121.363 97.090 212.385 212.385 212.385 121.363 0 212.385-97.090 212.385-212.385 6.068-30.34-42.477-36.409-115.295-36.409v0 0z"  horiz-adv-x="1024" />

    
    <glyph glyph-name="ppt" unicode="&#58942;" d="M405.637042 378.393305c4.240581 5.614881 6.112208 15.908318 5.614881 30.880311-0.499373 12.475126-2.778276 21.709441-6.830569 27.698852-4.056386 5.989411-11.012821 8.983605-20.868283 8.983605L273.132192 445.956074l0-75.985602 110.420879 0C394.034796 369.971495 401.394415 372.778424 405.637042 378.393305zM862.278223 831.155133 287.963992 831.155133c-52.79032 0-95.681176-42.893926-95.681176-95.684246l0-95.681176-63.788815 0c-35.19457 0-63.787792-28.593222-63.787792-63.788815l0-382.954949c0-35.192523 28.593222-63.782675 63.787792-63.782675l63.788815 0 0-95.685269c0-52.788274 42.890856-95.684246 95.681176-95.684246l574.314231 0c52.78725 0 95.684246 42.895973 95.684246 95.684246L957.962469 735.470887C958.069917 788.26223 915.065474 831.155133 862.278223 831.155133zM214.178499 249.068891l0 254.905574 182.475961 0c16.84362 0 29.631878-2.65241 38.366819-7.954159 8.731872-5.304819 15.033391-11.106965 18.902512-17.405415 3.866051-6.30152 6.644327-13.320377 8.328689-21.055548 1.684362-7.737218 2.682086-17.685801 2.994194-29.850865 0.310062-12.165064 0.341784-24.488741 0.093121-36.963866-0.500397-19.089777-2.526543-33.564443-6.082532-43.419905-3.555989-9.857509-8.328689-17.342993-14.317077-22.457478-5.989411-5.117554-12.385075-8.454556-19.183921-10.013051-6.801916-1.561565-16.314571-2.339278-28.541033-2.339278L273.132192 312.514899l0-63.446008L214.178499 249.068891zM894.169561 33.468508c0-17.594727-14.295588-31.890314-31.891338-31.890314L287.963992 1.578194c-17.59575 0-31.894408 14.295588-31.894408 31.890314l0 95.686293 255.263731 0c35.1915 0 63.788815 28.590152 63.788815 63.781652l0 63.792908 223.3683 0c17.594727 0 31.896454 14.295588 31.896454 31.893384 0 17.59575-14.301727 31.891338-31.896454 31.891338L575.121108 320.514083l0 63.791885 223.3683 0c17.594727 0 31.896454 14.296611 31.896454 31.892361 0 17.59575-14.301727 31.895431-31.896454 31.895431L575.121108 448.09376l0 63.788815 223.3683 0c17.594727 0 31.896454 14.297634 31.896454 31.894408 0 17.59575-14.301727 31.893384-31.896454 31.893384L575.121108 575.670367c0 35.19457-28.597315 63.787792-63.788815 63.787792l-255.263731 0 0 95.681176c0 17.59882 14.298658 31.896454 31.894408 31.896454l574.314231 0c17.59575 0 31.891338-14.297634 31.891338-31.896454L894.168538 33.468508z"  horiz-adv-x="1024" />

    
    <glyph glyph-name="word" unicode="&#58945;" d="M862.278223 831.155133 287.963992 831.155133c-52.79032 0-95.681176-42.893926-95.681176-95.684246l0-95.681176-63.788815 0c-35.19457 0-63.787792-28.593222-63.787792-63.788815l0-382.954949c0-35.192523 28.593222-63.782675 63.787792-63.782675l63.788815 0 0-95.685269c0-52.788274 42.890856-95.684246 95.681176-95.684246l574.314231 0c52.78725 0 95.684246 42.895973 95.684246 95.684246L957.962469 735.470887C958.069917 788.26223 915.065474 831.155133 862.278223 831.155133zM177.68433 457.894987l50.348712 0 32.549324-116.973108 7.120165 0 36.44812 116.973108 43.059702 0L383.487579 340.753033l7.797593 0 32.718169 117.141954 50.51858 0-50.51858-167.151951-71.539336 0-24.410969 87.812975-6.780427 0-24.072255-87.47426-69.674872 0L177.68433 457.894987zM894.169561 33.468508c0-17.594727-14.295588-31.890314-31.891338-31.890314L287.963992 1.578194c-17.59575 0-31.894408 14.295588-31.894408 31.890314l0 95.686293 255.263731 0c35.1915 0 63.788815 28.590152 63.788815 63.781652l0 63.792908 223.3683 0c17.594727 0 31.896454 14.295588 31.896454 31.893384 0 17.59575-14.301727 31.891338-31.896454 31.891338L575.121108 320.514083l0 63.791885 223.3683 0c17.594727 0 31.896454 14.296611 31.896454 31.892361 0 17.59575-14.301727 31.895431-31.896454 31.895431L575.121108 448.09376l0 63.788815 223.3683 0c17.594727 0 31.896454 14.297634 31.896454 31.894408 0 17.59575-14.301727 31.893384-31.896454 31.893384L575.121108 575.670367c0 35.19457-28.597315 63.787792-63.788815 63.787792l-255.263731 0 0 95.681176c0 17.59882 14.298658 31.896454 31.894408 31.896454l574.314231 0c17.59575 0 31.891338-14.297634 31.891338-31.896454L894.168538 33.468508z"  horiz-adv-x="1024" />

    
    <glyph glyph-name="fabu" unicode="&#58914;" d="M972.8 806.4c-19.2 6.4-51.2-6.4-51.2-6.4L51.2 371.2c0 0-19.2-12.8-19.2-25.6 0-19.2 19.2-32 19.2-32l313.6-96L384 275.2 147.2 345.6 870.4 704 448 192l0-256 64 0 0 236.8 313.6-108.8c0 0 19.2-6.4 32 0l0 0c12.8 6.4 19.2 25.6 19.2 25.6s121.6 665.6 121.6 672C998.4 780.8 992 800 972.8 806.4zM819.2 134.4l-262.4 96 358.4 435.2L819.2 134.4z"  horiz-adv-x="1024" />

    
    <glyph glyph-name="3333333" unicode="&#58905;" d="M59.091 565.108h128.571c12.413 0 22.464 10.075 22.464 22.514s-10.050 22.514-22.464 22.514h-128.571c-12.413 0-22.464-10.075-22.464-22.514s10.050-22.514 22.464-22.514zM187.665 401.022h-128.571c-12.413 0-22.464-10.075-22.464-22.514s10.050-22.514 22.464-22.514h128.571c12.413 0 22.464 10.075 22.464 22.514s-10.050 22.514-22.464 22.514zM187.665 192.686h-128.571c-12.413 0-22.464-10.089-22.464-22.514 0-12.441 10.050-22.514 22.464-22.514h128.571c12.413 0 22.464 10.075 22.464 22.514 0 12.423-10.050 22.514-22.464 22.514zM873.44 866.137h-667.324c-55.279 0-100.083-44.926-100.083-100.345v-73.699h45.601v61.869c0 43.095 23.734 66.897 66.73 66.897h643.873c42.991 0 66.73-23.801 66.73-66.897v-750.866c0-43.108-23.734-66.897-66.73-66.897h-643.873c-42.991 0-66.73 23.788-66.73 66.897v61.869h-45.601v-72.545c0-55.419 44.81-100.345 100.083-100.345h667.324c55.279 0 100.083 44.926 100.083 100.345v773.369c0 55.419-44.81 100.345-100.083 100.345zM632.862 265.125c58.143 32.735 97.759 94.551 97.759 166.163 0 105.678-85.437 191.34-190.845 191.34-105.406 0-190.845-85.66-190.845-191.34 0-71.764 39.785-133.687 98.124-166.37-56.198-24.335-112.183-70-135.534-126.835h48.483c31.060 58.662 102.707 99.241 172.916 101.865 2.272 0.007 4.556 0.007 6.858 0.007 2.583 0 5.154 0 7.713-0.007 70.209-2.635 141.856-43.213 172.901-101.865h48.483c-23.411 56.987-79.583 102.758-136.016 127.042zM393.076 431.289c0 81.23 65.687 147.075 146.7 147.075 81.023 0 146.7-65.844 146.7-147.075 0-81.218-65.676-147.060-146.7-147.060-81.011 0-146.7 65.844-146.7 147.060z"  horiz-adv-x="1024" />

    
    <glyph glyph-name="excel1" unicode="&#58928;" d="M624.256 352l224 0 0-64-224 0 0 64ZM624.256 480l224 0 0-64-224 0 0 64ZM624.256 224l224 0 0-64-224 0 0 64ZM49.536 593.984l0-512 512.064 0 0 512L49.536 593.984zM375.232 192.064 305.6 296.192l-31.36-46.912 31.36 0 0-57.216-157.44 0 114.304 168.384L161.216 512 245.76 512l59.904-88.128L365.504 512l84.48 0L348.608 360.512l114.368-168.448L375.232 192.064zM926.144 693.824l-121.856 121.92C777.728 842.24 725.376 864 687.808 864L278.336 864c-37.568 0-68.224-30.72-68.224-68.224l0-137.728 54.592 0L264.704 795.776c0 7.424 6.336 13.632 13.696 13.632l409.472 0c4.032 0 8.704-0.512 13.632-1.472l0-216.896 216.96 0c0.96-4.928 1.472-31.872 1.472-36.032l0-582.72c0-7.424-6.336-13.632-13.696-13.632L278.336-41.344c-7.424 0-13.696 6.336-13.696 13.632l0 45.76L210.048 18.048l0-45.76c0-37.568 30.656-68.224 68.224-68.224l627.904 0c37.568 0 68.224 30.656 68.224 68.224L974.4 554.944C974.464 592.512 952.704 667.328 926.144 693.824zM756.032 645.568 756.032 785.024c3.712-2.56 6.912-5.248 9.536-7.936l121.856-121.856c2.688-2.688 5.376-5.952 8-9.664L756.032 645.568z"  horiz-adv-x="1024" />

    
    <glyph glyph-name="jpg" unicode="&#59466;" d="M137.747674-127.998907 137.747674 895.998907 604.779257 895.998907 604.779257 616.324619 886.252326 616.324619 886.252326-127.998907 137.747674-127.998907ZM835.512731 477.009842 188.487269 477.009842 188.487269-77.592622 835.512731-77.592622 835.512731 477.009842ZM287.495596 160.411378C287.595042 148.358675 289.235364 140.139582 292.427489 135.774862 295.621799 131.409049 299.811668 129.363292 305.010209 129.619012 310.209843 129.363292 314.41064 131.409049 317.602764 135.774862 320.794889 140.139582 322.436304 148.358675 322.525915 160.411378L322.525915 347.792714 390.251199 347.792714 390.251199 169.841315C390.200929 138.998679 383.025478 116.908432 368.713918 103.546531 354.419843 90.194466 333.298927 83.676893 305.376303 83.991625 277.216538 84.099814 256.943649 91.296028 244.539059 105.582453 232.144303 119.8656 226.075878 140.562503 226.332691 167.66879L226.332691 173.105566 287.495596 173.105566 287.495596 160.411378ZM573.344313 324.933122C585.53034 310.176785 591.570351 291.231671 591.461069 268.087946 591.351787 241.58271 584.017878 221.553519 569.470269 208.016768 554.929216 194.488759 533.846549 187.684867 506.2321 187.646618L482.520109 187.646618 482.520109 89.065584 414.793733 89.065584 414.793733 347.792714 516.440124 347.792714C542.18913 347.300946 561.1561 339.680718 573.344313 324.933122ZM514.84898 291.52564C510.402298 296.717624 503.878168 299.293398 495.278773 299.273728L482.520109 299.273728 482.520109 236.164512 495.278773 236.164512C503.878168 236.12517 510.402298 238.662697 514.84898 243.782555 519.288011 248.905691 521.531569 256.888735 521.55124 267.724038 521.531569 278.400881 519.288011 286.32382 514.84898 291.52564ZM616.141298 291.791195C621.30159 311.759187 630.918399 326.920961 644.992818 337.262309 659.059586 347.615678 679.301876 352.816404 705.741544 352.864488 730.204302 353.170478 749.942802 346.514116 764.926446 332.896496 779.931946 319.299639 787.630858 296.963508 788.055964 265.905586L722.514133 265.905586C722.523968 272.442831 722.228907 278.23368 721.646435 283.268298 721.060683 288.311658 720.131787 292.548518 718.866303 296.009477 717.601911 299.647472 715.664342 302.428697 713.075454 304.347687 710.486565 306.264492 707.184065 307.226173 703.179976 307.246937 695.876665 307.443644 690.470489 304.955295 686.962539 299.764404 683.452404 294.583348 681.17934 285.508577 680.132419 272.552113 679.104076 259.582535 678.638535 241.552111 678.747817 218.419314 678.64837 195.304002 679.094241 177.26265 680.082149 164.306186 681.071151 151.347536 683.225097 142.272765 686.526504 137.091709 689.829004 131.910653 694.899685 129.413562 701.718877 129.619012 708.884492 129.039817 714.449127 132.450506 718.412783 139.816108 722.376438 147.179523 724.471372 161.926026 724.698679 184.018458L700.631521 184.018458 700.631521 229.645845 788.055964 229.645845 788.055964 89.065584 742.17395 89.065584 739.989405 111.873814C735.107781 101.049439 727.485368 93.635754 717.127627 89.644778 706.769887 85.65271 695.670122 83.776339 683.858932 83.991625 661.261617 84.070308 644.578639 89.349717 633.815463 99.829853 623.042451 110.319825 616.103049 125.560281 612.989608 145.545759 609.86633 165.534515 608.481728 189.828978 608.837987 218.419314 608.541833 247.36263 610.983192 271.813367 616.141298 291.791195ZM637.347455 895.998907 886.252326 648.733265 637.347455 648.733265 637.347455 895.998907Z"  horiz-adv-x="1024" />

    
    <glyph glyph-name="png" unicode="&#59470;" d="M137.747674-127.998907 137.747674 895.998907 604.779257 895.998907 604.779257 616.32134 886.252326 616.32134 886.252326-127.998907 137.747674-127.998907ZM835.512731 477.010935 188.487269 477.00547 188.487269-77.592622 835.512731-77.592622 835.512731 477.010935ZM391.342925 309.392141C402.168392 296.25864 407.53632 279.396439 407.441245 258.798983 407.343984 235.209388 400.824225 217.395342 387.898359 205.345918 374.964844 193.297586 356.221902 187.25211 331.670626 187.207305L310.591237 187.207305 310.591237 99.471408 250.382363 99.471408 250.382363 329.73497 340.747582 329.73497C363.647608 329.306585 380.508716 322.525642 391.342925 309.392141ZM339.333474 279.659809C335.379654 284.279156 329.580063 286.580633 321.944535 286.555498L310.591237 286.555498 310.591237 230.388963 321.944535 230.388963C329.580063 230.352899 335.379654 232.610664 339.333474 237.178648 343.287294 241.728055 345.274039 248.833565 345.290432 258.476602 345.274039 267.977572 343.287294 275.039369 339.333474 279.659809ZM533.023656 187.837861 533.673883 329.73497 589.989042 329.73497 589.989042 99.471408 523.946699 99.471408 483.746253 241.701827 483.097118 99.471408 426.781959 99.471408 426.781959 329.73497 494.116014 329.73497 533.023656 187.837861ZM620.997787 279.895858C625.594184 297.676026 634.134566 311.167972 646.646253 320.373881 659.151383 329.586347 677.156672 334.205693 700.64245 334.260334 722.399387 334.521518 739.946785 328.597345 753.267158 316.488909 766.598459 304.378286 773.451529 284.497719 773.828551 256.855951L715.56271 256.855951C715.571453 262.675213 715.309176 267.828948 714.79118 272.308414 714.272091 276.797715 713.447012 280.57887 712.321408 283.648599 711.188155 286.886622 709.473522 289.371693 707.170951 291.068841 704.869474 292.774732 701.935255 293.64243 698.37485 293.651173 691.882411 293.834767 687.076192 291.611972 683.957286 287.001368 680.829638 282.379836 678.815572 274.304995 677.894325 262.771381 676.96215 251.239953 676.550158 235.184253 676.653975 214.603189 676.56655 194.023218 676.96215 177.976261 677.840777 166.433905 678.720497 154.911219 680.635116 146.835285 683.570428 142.214846 686.505741 137.603149 691.01362 135.380354 697.085323 135.565041 703.446624 135.057973 708.383981 138.085082 711.917065 144.637626 715.440314 151.191263 717.303571 164.318207 717.50465 183.986767L696.109436 183.986767 696.109436 224.586093 773.828551 224.586093 773.828551 99.471408 733.04891 99.471408 731.748455 119.770525C726.75755 110.137324 719.982071 103.539974 710.773976 99.995962 701.565882 96.444299 691.706467 94.763543 681.189175 94.956972 661.103158 95.026913 646.277973 99.724943 636.709248 109.06199 627.131781 118.389202 620.962816 131.951088 618.195798 149.739999 615.418945 167.537652 614.18843 189.149245 614.495512 214.603189 614.241978 240.354381 616.412317 262.115689 620.997787 279.895858ZM637.347455 895.998907 886.252326 648.728893 637.347455 648.728893 637.347455 895.998907Z"  horiz-adv-x="1024" />

    
    <glyph glyph-name="ppt1" unicode="&#59471;" d="M137.747674-127.998907 137.747674 895.998907 604.779257 895.998907 604.779257 616.330083 886.252326 616.330083 886.252326-127.998907 137.747674-127.998907ZM835.512731 477.008749 188.487269 477.008749 188.487269-77.604643 835.512731-77.604643 835.512731 477.008749ZM398.953318 313.082591C410.867233 298.692348 416.775014 280.19529 416.670103 257.592511 416.563007 231.727666 409.388649 212.193523 395.163421 198.994453 380.929451 185.793197 360.303582 179.153227 333.285813 179.116071L310.087447 179.116071 310.087447 82.909734 243.828726 82.909734 243.828726 335.378288 343.27418 335.378288C368.474591 334.917119 387.031754 327.472834 398.953318 313.082591ZM341.718006 280.464124C337.367492 285.529341 330.984336 288.062496 322.581649 288.023154L310.087447 288.023154 310.087447 226.470113 322.581649 226.470113C330.984336 226.432957 337.367492 228.888522 341.718006 233.877241 346.068519 238.903117 348.25525 246.693825 348.272735 257.246087 348.25525 267.685789 346.068519 275.397814 341.718006 280.464124ZM590.572607 313.082591C602.496358 298.692348 608.404138 280.19529 608.297042 257.592511 608.192131 231.727666 601.017773 212.193523 586.78271 198.994453 572.557483 185.793197 551.931613 179.153227 524.905102 179.116071L501.716571 179.116071 501.716571 82.909734 435.457851 82.909734 435.457851 335.378288 534.903305 335.378288C560.092787 334.917119 578.651043 327.472834 590.572607 313.082591ZM533.34713 280.464124C528.994431 285.529341 522.61346 288.062496 514.200938 288.023154L501.716571 288.023154 501.716571 226.470113 514.200938 226.470113C522.61346 226.432957 528.994431 228.888522 533.34713 233.877241 537.688901 238.903117 539.872354 246.693825 539.902953 257.246087 539.872354 267.685789 537.688901 275.397814 533.34713 280.464124ZM779.24347 279.542877 729.33551 279.542877 729.33551 82.909734 663.07679 82.909734 663.07679 279.542877 613.171016 279.542877 613.171016 335.378288 779.24347 335.378288 779.24347 279.542877ZM637.347455 895.998907 886.252326 648.734357 637.347455 648.734357 637.347455 895.998907Z"  horiz-adv-x="1024" />

    
    <glyph glyph-name="rar" unicode="&#59472;" d="M137.747674-127.998907 137.747674 895.998907 604.773793 895.998907 604.773793 616.330083 886.252326 616.330083 886.252326-127.998907 137.747674-127.998907ZM835.508359 477.008749 188.491641 477.008749 188.491641-77.604643 835.508359-77.604643 835.508359 477.008749ZM387.863389 313.655228C397.800394 302.438532 402.645954 287.751042 402.431762 269.663792 402.502795 254.205864 399.355476 241.728055 392.955927 232.263147 386.555284 222.76327 376.476213 216.945101 362.685928 214.737606 377.114419 212.737747 387.120272 207.621167 392.74392 198.78791 398.365382 189.954652 401.053717 177.826545 400.805647 162.402495L400.805647 142.704429C400.735706 136.429461 400.87668 130.155586 401.158627 123.915588 401.477731 117.677776 402.326851 113.260601 403.740959 110.701219 404.482983 109.404042 405.332104 108.141836 406.286135 106.916786 407.242352 105.688457 408.690337 104.567224 410.566708 103.585873L410.566708 100.395934 346.067426 100.395934C343.27418 106.986726 341.575939 114.626625 340.938826 123.320002 340.337775 132.013378 340.090798 139.022721 340.232864 144.316337L340.232864 159.845298C340.302805 172.640025 338.818756 181.437219 335.776348 186.134156 332.735032 190.83 327.573647 193.039681 320.323884 192.793797L304.341404 192.793797 304.341404 100.395934 243.767528 100.395934 243.767528 331.005919 338.604564 331.005919C361.483826 330.690094 377.892507 324.905802 387.863389 313.655228ZM335.811318 281.372256C331.709967 285.683428 325.133382 287.820983 316.080467 287.751042L304.341404 287.751042 304.341404 233.45432 316.399571 233.45432C325.026285 233.560324 331.42802 236.083643 335.599311 241.026465 339.806665 245.933223 341.857887 252.592863 341.857887 260.936538 341.92892 270.259378 339.913761 277.059992 335.811318 281.372256ZM545.538621 331.005919 602.223153 100.395934 537.723871 100.395934 531.536329 140.776696 483.302568 140.776696 477.115026 100.395934 412.615744 100.395934 469.300276 331.005919 545.538621 331.005919ZM524.357599 185.958212 507.736912 283.895576 490.481297 185.958212 524.357599 185.958212ZM756.574029 313.655228C766.509941 302.438532 771.389379 287.751042 771.143494 269.663792 771.214528 254.205864 768.066116 241.728055 761.665474 232.263147 755.265924 222.76327 745.187946 216.945101 731.43263 214.105957 745.823966 212.737747 755.832005 207.621167 761.453467 198.78791 767.077114 189.954652 769.764357 177.826545 769.516287 162.402495L769.516287 142.704429C769.445253 136.429461 769.586227 130.155586 769.87036 123.915588 770.187278 117.677776 771.036398 113.260601 772.450506 110.701219 773.19253 109.404042 774.078807 108.141836 775.032838 106.916786 775.986869 105.688457 777.40207 104.567224 779.310132 103.585873L779.310132 100.395934 714.811943 100.395934C712.018697 106.986726 710.285486 114.626625 709.684436 123.320002 709.049508 132.013378 708.837501 139.022721 708.942411 144.316337L708.942411 159.845298C709.049508 172.640025 707.562181 181.437219 704.486988 186.134156 701.446765 190.83 696.283194 193.039681 689.034524 192.793797L673.050951 192.793797 673.050951 100.395934 612.478168 100.395934 612.478168 331.005919 707.316296 331.005919C730.193374 330.690094 746.638117 324.905802 756.574029 313.655228ZM704.523051 281.372256C700.45667 285.683428 693.878992 287.820983 684.790014 287.751042L673.050951 287.751042 673.050951 233.45432 685.109118 233.45432C693.771895 233.560324 700.137567 236.083643 704.346014 241.026465 708.518398 245.933223 710.604589 252.592863 710.569619 260.936538 710.640652 270.259378 708.623308 277.059992 704.523051 281.372256ZM637.35729 895.998907 886.252326 648.734357 637.35729 648.734357 637.35729 895.998907Z"  horiz-adv-x="1024" />

    
    <glyph glyph-name="qingqiuyifasong" unicode="&#58932;" d="M510.040369 833.638902l0-0.092098c-4.619204-0.270153-9.057283-1.89721-12.754488-4.679579l-117.729332-88.366583L183.370331 740.500641l-23.491017 0 0-23.491017 0-141.129274-80.199577-60.10389c-11.521404-4.758374-17.320481-17.685801-13.213953-29.455869-0.400113-1.807159-0.584308-3.65525-0.550539-5.505387l0-516.432962 0-0.092098c-0.004093-0.734734 0.026606-1.470491 0.092098-2.202155l0-0.092098c0.086981-0.73985 0.209778-1.474584 0.367367-2.202155l0-0.092098c0.148379-0.74292 0.331551-1.477654 0.550539-2.202155l0-0.092098c0.2415-0.716314 0.51677-1.420349 0.825808-2.110057 0-0.030699 0-0.061398 0-0.092098 0.303922-0.688685 0.64059-1.362021 1.00898-2.018983l0-0.092098c0.396019-0.663102 0.824785-1.305739 1.284249-1.926886 0-0.030699 0-0.061398 0-0.092098 0.430812-0.602727 0.890276-1.183965 1.376347-1.743714 0-0.030699 0-0.061398 0-0.092098 0.522909-0.578168 1.074472-1.128707 1.651616-1.651616 4.366448-4.27128 10.224876-6.674003 16.334014-6.698562 0.24457-0.004093 0.48914-0.004093 0.733711 0l839.98294 0c12.649088-2.889817 25.245987 5.021364 28.135804 17.670451 0.663102 2.90312 0.768503 5.906523 0.310062 8.848529l0 513.404999c0.038886 3.14462-0.553609 6.264681-1.743714 9.175987l0 0.092098c1.826602 9.902534-2.861164 19.86749-11.653411 24.775266l-80.566944 60.287061 0 141.955082 0 23.39892-21.839401 0c-0.549515 0.050142-1.100054 0.080841-1.651616 0.092098L643.553175 740.589669l-118.096698 88.366583C521.030677 832.287114 515.570315 833.94487 510.040369 833.638902zM511.508813 780.692016l53.680597-40.191374L457.920314 740.500641 511.508813 780.692016zM206.861348 693.51963 387.356189 693.51963l247.388367 0 182.880167 0 0-130.209574 0-113.784486-1.743714-1.101077-1.376347-0.825808L511.417739 258.295225l-304.556391 189.853999 0 115.344005c0.00307 0.213871 0.00307 0.427742 0 0.642636L206.861348 693.51963zM606.849228 609.466283c-0.765433 0.007163-1.530866-0.023536-2.294252-0.092098-6.097882-0.337691-11.824303-3.036149-15.966647-7.52437l-136.632867-144.249335-64.049758 64.508199c-4.425799 4.574179-10.518564 7.158027-16.884552 7.158027-12.974499-0.004093-23.489994-10.525728-23.485901-23.500227 0.002047-6.315846 2.547009-12.364609 7.060813-16.783245l78.088496-78.54796c5.842055-8.580422 16.622586-12.311397 26.51898-9.175987 0.463558 0.13917 0.921999 0.291642 1.376347 0.458441 0.277316 0.116657 0.552585 0.239454 0.825808 0.367367 0.433882 0.170892 0.861624 0.354064 1.284249 0.550539 0.278339 0.147356 0.553609 0.299829 0.825808 0.458441 2.926656 1.556449 5.491061 3.713578 7.52437 6.331195l151.681608 160.123884c9.079796 9.268084 8.927323 24.142863-0.341784 33.222659C618.21509 606.854805 612.67798 609.240132 606.849228 609.466283zM159.879314 517.061733l0-39.640836-28.90533 17.98563L159.879314 517.061733zM864.606757 516.42012l27.344788-20.463054-4.037966-2.477424-23.307845-14.5903L864.605733 516.42012zM911.588791 452.9209l0-445.042006L666.493653 171.672355c-3.904936 2.723018-8.544607 4.194532-13.305027 4.221138l0-0.092098c-12.974499 0.048095-23.531949-10.43056-23.580045-23.406083-0.029676-8.001231 4.015454-15.468296 10.733459-19.814278l216.740346-144.707776L166.945243-12.126741l217.015615 144.707776c10.901281 7.036253 14.033621 21.578458 6.997368 32.479739-4.470825 6.92676-12.245905 11.002588-20.48659 10.740622-4.499477-0.143263-8.862855-1.576915-12.571317-4.129041l-245.00304-163.427116 0 443.11512 46.982034-29.271674 11.102872-6.881734 323.917344-201.966874 3.945869-2.477424 1.743714-1.101077c0.030699 0 0.061398 0 0.092098 0 0.836041-0.38681 1.693572-0.723477 2.569522-1.00898 1.455141-0.545422 2.961448-0.944512 4.496407-1.193175 1.426489-0.224104 2.869351-0.316202 4.313236-0.275269 0.122797-0.001023 0.24457-0.001023 0.367367 0 0.276293 0.025583 0.551562 0.056282 0.825808 0.092098 0.367367 0.021489 0.734734 0.052189 1.101077 0.092098 0.153496 0.028653 0.305969 0.059352 0.458441 0.092098 0.771573 0.11461 1.537006 0.268106 2.294252 0.458441 0.743944 0.178055 1.478677 0.39295 2.202155 0.642636 0.62217 0.218988 1.234107 0.463558 1.834788 0.733711 0.122797 0.060375 0.245593 0.121773 0.367367 0.183172 0.122797 0.060375 0.245593 0.121773 0.367367 0.183172l0.458441 0 342.269317 213.803457 0 0.092098L911.588791 452.9209z"  horiz-adv-x="1024" />

    
    <glyph glyph-name="jpg1" unicode="&#58907;" d="M956.416 587.264 732.16 827.904 166.4 827.904 166.4 468.992 215.552 468.992 215.552 778.24 683.008 778.24 683.008 538.624 907.264 538.624 907.264-12.8 166.4-12.8 166.4-61.44 956.928-61.44 956.928 587.264ZM363.52 301.056l-24.576 0 0-74.24 22.016 0c14.848 0 25.6 3.072 33.28 9.728s11.264 15.872 11.264 28.16C406.016 289.28 391.68 301.056 363.52 301.056zM742.4 415.232 742.4 415.232l-674.304 0 0-373.248L742.4 41.984 742.4 415.232zM268.8 203.776c0-22.528-4.608-39.936-14.336-52.224s-22.528-18.432-38.912-18.432c-7.68 0-13.824 1.024-18.944 3.584l0 23.552c5.12-3.584 11.264-5.632 18.944-5.632 19.456 0 29.184 16.384 29.184 49.152L244.736 322.56l24.064 0L268.8 203.776zM411.648 222.208c-12.8-11.264-29.184-16.896-48.64-15.872l-24.064 0 0-69.632-24.064 0L314.88 322.56l52.736 0c19.968 0 35.84-4.608 46.592-14.336s16.384-23.552 16.384-41.472C431.104 248.32 424.96 233.472 411.648 222.208zM604.672 149.504c-18.432-10.752-39.424-15.872-62.976-15.872-27.136 0-48.64 8.704-65.024 25.6s-24.576 39.936-24.576 68.096c0 28.672 9.216 52.224 27.136 70.656s41.472 27.648 69.632 27.648c19.968 0 36.864-3.072 51.2-9.728l0-26.112c-14.848 9.216-32.768 13.824-53.248 13.824-20.48 0-36.864-7.168-50.176-20.992s-19.456-32.256-19.456-54.784c0-23.04 6.144-41.472 17.92-54.272s28.16-19.456 49.152-19.456c14.336 0 26.112 2.56 36.352 8.192l0 50.176-40.448 0 0 20.992 64.512 0L604.672 149.504z"  horiz-adv-x="1024" />

    
    <glyph glyph-name="png1" unicode="&#58908;" d="M956.416 587.264 732.16 827.904 166.4 827.904 166.4 468.992 215.552 468.992 215.552 778.24 683.008 778.24 683.008 538.624 907.264 538.624 907.264-12.8 166.4-12.8 166.4-61.44 956.928-61.44 956.928 587.264ZM220.16 301.056l-24.576 0 0-74.24 22.016 0c14.848 0 25.6 3.072 33.28 9.728s11.264 15.872 11.264 28.16C262.656 289.28 248.32 301.056 220.16 301.056zM742.4 415.232 742.4 415.232l-674.304 0 0-373.248L742.4 41.984 742.4 415.232zM268.288 222.208c-12.8-11.264-29.184-16.896-48.64-15.872l-24.064 0 0-69.632-24.064 0L171.52 322.56l52.736 0c19.968 0 35.84-4.608 46.592-14.336s16.384-23.552 16.384-41.472C287.744 248.32 281.088 233.472 268.288 222.208zM473.6 136.704 445.44 136.704l-93.696 144.384c-2.56 4.096-4.608 8.192-6.144 12.288l-0.512 0c0.512-4.096 1.024-12.8 1.024-26.112l0-130.56-23.552 0L322.56 322.56l30.208 0 91.136-142.336c4.096-6.656 6.656-10.752 7.68-12.8l0.512 0c-1.024 5.12-1.024 14.336-1.024 27.136l0 128 23.552 0L474.624 136.704zM662.528 149.504c-18.432-10.752-39.424-15.872-62.976-15.872-27.136 0-48.64 8.704-65.024 25.6s-24.576 39.936-24.576 68.096c0 28.672 9.216 52.224 27.136 70.656s41.472 27.648 69.632 27.648c19.968 0 36.864-3.072 51.2-9.728l0-26.112c-14.848 9.216-32.768 13.824-53.248 13.824-20.48 0-36.864-7.168-50.176-20.992s-19.456-32.256-19.456-54.784c0-23.04 6.144-41.472 17.92-54.272s28.16-19.456 49.152-19.456c14.336 0 26.112 2.56 36.352 8.192l0 50.176-40.448 0 0 20.992 64.512 0L662.528 149.504z"  horiz-adv-x="1024" />

    
    <glyph glyph-name="excel2" unicode="&#59176;" d="M733.632 896 80 896l0-1024 853.344 0L933.344 690.304 733.632 896zM284.8-8.576 216.544-8.576l0 17.056L284.8 8.48 284.8-8.576zM387.2-8.576 318.944-8.576l0 17.056L387.2 8.48 387.2-8.576zM489.6-8.576l-68.256 0 0 17.056L489.6 8.48 489.6-8.576zM592-8.576l-68.256 0 0 17.056L592 8.48 592-8.576zM694.4-8.576l-68.288 0 0 17.056L694.4 8.48 694.4-8.576zM719.008 178.944 584 178.944l-80.768 126.24-80.512-126.24L287.744 178.944l143.008 221.504L285.248 624.96l131.008 0 87.776-140 87.488 140 127.488 0-140.512-223.488L719.008 178.944zM796.8-8.576l-68.288 0 0 17.056L796.8 8.48 796.8-8.576zM727.808 690.464 727.808 862.56l172.128-172.096L727.808 690.464z"  horiz-adv-x="1024" />

    
    <glyph glyph-name="word1" unicode="&#59178;" d="M738.944 896 85.344 896l0-1024 853.344 0L938.688 690.304 738.944 896zM273.056-25.6 204.8-25.6l0 17.056 68.256 0L273.056-25.6zM375.456-25.6 307.2-25.6l0 17.056 68.288 0L375.488-25.6zM477.888-25.6 409.6-25.6l0 17.056 68.288 0L477.888-25.6zM450.048 218.272 368.64 218.272 271.872 583.84l80.384 0 57.888-248.832 0.992 0 63.488 248.832 75.296 0 62.464-251.904 0.992 0 59.936 251.904 78.816 0-98.272-365.568-79.872 0L512 467.104l-1.024 0L450.048 218.272zM580.288-25.6 512-25.6l0 17.056 68.288 0L580.288-25.6zM682.656-25.6 614.4-25.6l0 17.056 68.256 0L682.656-25.6zM785.056-25.6 716.8-25.6l0 17.056 68.256 0L785.056-25.6zM733.152 690.496 733.152 862.592l172.096-172.096L733.152 690.496z"  horiz-adv-x="1024" />

    
    <glyph glyph-name="youjian3" unicode="&#58880;" d="M451.715072 288.847872c16.086016 16.119808 37.513216 25.00608 60.284928 25.00608 22.772736 0 44.199936-8.886272 60.285952-25.00608l14.373888-14.388224 90.033152-90.135552 282.881024 283.143168L544.457728 882.988032c-17.333248 17.349632-47.581184 17.349632-64.91648 0L83.067904 486.202368l-20.216832-20.235264L345.750528 182.80448 451.715072 288.847872zM314.983424 152.00768 317.904896 154.971136 59.392 413.723648 59.392 407.81824 59.392 400.123904 59.392 382.082048 59.392-103.725056 314.944512 152.046592ZM903.133184-97.91488l-0.09728 0L544.457728 260.995072c-17.333248 17.350656-47.581184 17.350656-64.91648 0L112.009216-106.820608l-0.058368 0L90.793984-128l842.394624 0-8.300544 8.30976L903.133184-97.91488zM704.520192 156.471296 708.977664 152.00768 709.055488 152.066048 964.608-103.744512 964.608 400.123904 964.608 407.875584 964.608 416.801792Z"  horiz-adv-x="1024" />

    
    <glyph glyph-name="wenjian-copy" unicode="&#58881;" d="M963.846 50.894c0 0 0 513.193 0 563.643 0 68.467-62.315 62.051-62.315 62.051s-372.217-0.44-352.529 0c-21.357-0.44-31.904 11.162-31.904 11.162s-14.854 25.489-41.484 65.83c-27.949 42.276-60.293 35.332-60.293 35.332h-274.307c-76.026 0-76.904-73.125-76.904-73.125s0-608.467 0-661.114c0-81.563 61.612-71.455 61.612-71.455s735.029 0 781.435 0c65.918 0 56.69 67.676 56.69 67.676z"  horiz-adv-x="1027" />

    
    <glyph glyph-name="qunzugonggao" unicode="&#58923;" d="M257.952 700.3456 261.28 700.3456C285.728 700.3456 305.568 720.1856 305.568 744.5696L305.568 851.7696C305.568 876.2176 285.728 895.9936 261.28 895.9936L257.952 895.9936C233.504 895.9936 213.728 876.2176 213.728 851.7696L213.728 744.5696C213.728 720.1856 233.504 700.3456 257.952 700.3456M493.6128 700.3456 496.9408 700.3456C521.3888 700.3456 541.2288 720.1856 541.2288 744.5696L541.2288 851.7696C541.2288 876.2176 521.3888 895.9936 496.9408 895.9936L493.6128 895.9936C469.1648 895.9936 449.3888 876.2176 449.3888 851.7696L449.3888 744.5696C449.3888 720.1856 469.1648 700.3456 493.6128 700.3456M729.28 700.3456 732.608 700.3456C757.056 700.3456 776.896 720.1856 776.896 744.5696L776.896 851.7696C776.896 876.2176 757.056 895.9936 732.608 895.9936L729.28 895.9936C704.832 895.9936 685.056 876.2176 685.056 851.7696L685.056 744.5696C685.056 720.1856 704.832 700.3456 729.28 700.3456M762.9696 449.7408 227.6096 449.7408C204.8896 449.7408 186.4576 468.1728 186.4576 490.8928 186.4576 513.6768 204.8896 532.1088 227.6096 532.1088L762.9696 532.1088C785.6896 532.1088 804.1216 513.6768 804.1216 490.8928 804.1216 468.1728 785.6896 449.7408 762.9696 449.7408M762.9696 255.6288 227.6096 255.6288C204.8896 255.6288 186.4576 274.0608 186.4576 296.7808 186.4576 319.5008 204.8896 337.9328 227.6096 337.9328L762.9696 337.9328C785.6896 337.9328 804.1216 319.5008 804.1216 296.7808 804.1216 274.0608 785.6896 255.6288 762.9696 255.6288M762.9696 61.4528 227.6096 61.4528C204.8896 61.4528 186.4576 79.8848 186.4576 102.6048 186.4576 125.3888 204.8896 143.8208 227.6096 143.8208L762.9696 143.8208C785.6896 143.8208 804.1216 125.3888 804.1216 102.6048 804.1216 79.8848 785.6896 61.4528 762.9696 61.4528M907.0976 798.6048 815.9616 798.6048 815.9616 753.6768C815.9616 706.3168 777.5616 667.8528 730.1376 667.8528 682.7776 667.8528 644.3776 706.3168 644.3776 753.6768L644.3776 798.6048 581.0816 798.6048 581.0816 753.6768C581.0816 706.3168 542.6816 667.8528 495.3216 667.8528 447.8976 667.8528 409.4976 706.3168 409.4976 753.6768L409.4976 798.6048 346.2016 798.6048 346.2016 753.6768C346.2016 706.3168 307.8016 667.8528 260.4416 667.8528 213.0176 667.8528 174.6176 706.3168 174.6176 753.6768L174.6176 798.6048 83.4816 798.6048C55.0656 798.6048 32.0256 775.5648 32.0256 747.0848L32.0256-76.5312C32.0256-104.9472 55.0656-127.9872 83.4816-127.9872L907.0976-127.9872C935.5136-127.9872 958.5536-104.9472 958.5536-76.5312L958.5536 747.0848C958.5536 775.5648 935.5136 798.6048 907.0976 798.6048"  horiz-adv-x="1024" />

    
    <glyph glyph-name="wenjian1" unicode="&#59023;" d="M989.541-44.667h-858.923c0 0-68.409-10.642-68.409 80.572v737.306c0 0 1.521 82.091 85.132 82.091h301.003c0 0 36.486 7.601 66.89-39.525 28.884-45.607 45.607-74.491 45.607-74.491 0 0 10.642-12.161 34.965-12.161-21.283 0 387.655 0 387.655 0 0 0 68.409 7.601 68.409-68.409v-629.371c0 0 10.642-76.012-62.33-76.012zM925.692 533.016c0 18.243-15.202 33.445-33.445 33.445h-668.896c-19.763 0-34.965-15.203-34.965-33.445v-3.040c0-19.763 15.202-34.965 34.965-34.965h668.896c18.243 0 33.445 15.203 33.445 34.965v3.040z"  horiz-adv-x="1127" />

    
    <glyph glyph-name="ai-mail" unicode="&#58998;" d="M510.48 317.701l468.898 437.724h-937.36l468.461-437.724zM0.021 44.936c0-18.613 14.288-32.9 32.040-32.9h959.441c17.749 0 32.476 14.287 32.476 32.9v673.691l-300.045-279.695 234.231-317.794-290.084 264.973-157.599-146.772-160.193 149.803-292.68-268.003 235.961 321.257-293.547 274.060v-671.519z"  horiz-adv-x="1024" />

    
    <glyph glyph-name="yixuanze" unicode="&#59225;" d="M512 827.406762c-244.886383 0-443.406762-198.519356-443.406762-443.406762s198.519356-443.406762 443.406762-443.406762 443.406762 198.519356 443.406762 443.406762S756.886383 827.406762 512 827.406762zM497.759671 241.518938l0.013303-0.013303-57.006342-57.006342-0.013303 0.013303-0.034792-0.034792-57.006342 57.006342 0.034792 0.034792L241.243413 384.021489l57.006342 57.006342 142.502551-142.502551L725.750245 583.522196l57.006342-57.006342L497.759671 241.518938z"  horiz-adv-x="1024" />

    
    <glyph glyph-name="wenjianjia" unicode="&#58983;" d="M861.040535-7.894551c0-30.909987-25.074072-55.877635-55.924707-55.877635l-698.703239 0 97.848539 461.131449c0 30.879288 24.919553 55.906288 55.770188 55.906288L902.95925 453.26555c30.855752 0 55.828516-25.027 55.828516-55.906288L861.040535-7.894551 861.040535-7.894551 861.040535-7.894551zM218.161718 495.207801l628.870778 0L847.032496 550.098969c0 30.879288-25.076118 55.906288-55.877635 55.906288L455.787744 606.005256l0 50.658773c0 30.827099-25.027 55.877635-55.877635 55.877635L120.367415 712.541665c-30.855752 0-55.877635-25.050536-55.877635-55.877635l0-664.558581 97.747231 447.175599C162.237011 470.162382 187.311083 495.207801 218.161718 495.207801L218.161718 495.207801 218.161718 495.207801zM218.161718 495.207801"  horiz-adv-x="1024" />

    
    <glyph glyph-name="tongxunlu-copy-copy" unicode="&#58976;" d="M813.952 864.399h-605.851c-65.532 0-118.659-53.125-118.659-118.659v-91.529h121.132v-96.16h-121.132v-123.911h121.132v-96.16h-121.132v-123.917h121.132v-96.16h-121.132v-91.529c0-65.532 53.125-118.659 118.659-118.659h605.851c65.536 0 118.659 53.125 118.659 118.659v719.367c-0.001 65.532-53.123 118.658-118.659 118.658zM777.732 138.537c-1.506-0.231-2.985-0.406-4.433-0.406-11.183 0-21.148 7.937-23.291 19.351-18.019 95.715-101.914 165.125-199.483 165.125-97.221 0-181.058-69.121-199.338-164.43-2.491-12.863-14.891-21.322-27.781-18.83-12.891 2.433-21.322 14.891-18.86 27.754 18.863 98.311 94.519 173.348 188.811 195.586-51.338 22.23-87.39 73.299-87.39 132.693 0 79.724 64.863 144.615 144.615 144.615s144.615-64.892 144.615-144.615c0-59.402-36.060-110.478-87.407-132.704 94.571-22.306 170.256-97.663 188.858-196.386 2.433-12.863-6.054-25.319-18.917-27.754zM647.747 495.381c0 53.535-43.599 97.105-97.164 97.105s-97.164-43.569-97.164-97.105 43.599-97.105 97.164-97.105c53.565 0 97.164 43.569 97.164 97.105z"  horiz-adv-x="1024" />

    
    <glyph glyph-name="bianji2" unicode="&#59174;" d="M319.547 330.686c-0.656-0.851-1.338-1.751-1.63-2.822l-51.416-188.511c-2.993-10.974 0.072-22.825 8.2-31.146 6.084-5.914 14.089-9.2 22.606-9.2 2.821 0 5.645 0.343 8.418 1.096l187.196 51.052c0.294 0 0.438-0.292 0.658-0.292 2.165 0 4.257 0.804 5.865 2.433l500.536 500.464c14.865 14.893 23.019 35.163 23.019 57.232 0 24.991-10.61 49.98-29.151 68.498l-47.279 47.354c-18.541 18.565-43.58 29.2-68.522 29.2-22.071 0-42.34-8.152-57.281-22.996L320.303 332.39C319.766 331.926 319.937 331.221 319.547 330.686L319.547 330.686zM951.023 702.767l-49.739-49.688-80.615 81.881 49.031 49.008c7.738 7.788 22.775 6.644 31.657-2.264l47.279-47.353c4.939-4.938 7.762-11.508 7.762-17.958C956.398 711.039 954.478 706.223 951.023 702.767L951.023 702.767zM408.56 322.803 769.74 684.005l80.615-81.93L489.882 241.577 408.56 322.803 408.56 322.803 408.56 322.803M342.762 176.363l26.086 95.825 69.617-69.618L342.762 176.363 342.762 176.363 342.762 176.363M982.728 504.425c-18.956 0-34.506-15.402-34.576-34.601l0-466.591c0-24.48-19.856-44.336-44.36-44.336L114.466-41.103c-24.454 0-44.433 19.855-44.433 44.336L70.033 764.792c0 24.479 19.954 44.385 44.433 44.385l508.373 0c19.029 0 34.503 15.476 34.503 34.528 0 19.029-15.474 34.505-34.503 34.505L109.21 878.21C49.544 878.21 1 829.714 1 770.024l0-772.073c0-59.689 48.545-108.161 108.21-108.161l799.813 0c59.69 0 108.21 48.472 108.21 108.161L1017.233 470.018C1017.136 489.022 1001.634 504.425 982.728 504.425L982.728 504.425z"  horiz-adv-x="1024" />

    
    <glyph glyph-name="template" unicode="&#59028;" d="M554.713-11.893c-27.721 0-50.272 22.55-50.272 50.268v367.703c0 27.723 22.55 50.268 50.272 50.268h326.849c27.715 0 50.263-22.545 50.263-50.268v-367.703c0-27.717-22.547-50.268-50.263-50.268h-326.849zM146.152-11.893c-27.721 0-50.265 22.55-50.265 50.268v163.42c0 27.718 22.545 50.276 50.265 50.276h245.132c27.727 0 50.273-22.557 50.273-50.276v-163.42c0-27.717-22.546-50.268-50.273-50.268h-245.132zM146.152 314.958c-27.721 0-50.265 22.545-50.265 50.271v367.699c0 27.722 22.545 50.269 50.265 50.269h245.132c27.727 0 50.273-22.547 50.273-50.269v-367.699c0-27.726-22.546-50.271-50.273-50.271h-245.132zM554.713 519.237c-27.721 0-50.272 22.552-50.272 50.276v163.415c0 27.722 22.55 50.269 50.272 50.269h326.849c27.715 0 50.263-22.547 50.263-50.269v-163.416c0-27.723-22.547-50.276-50.263-50.276h-326.849z"  horiz-adv-x="1024" />

    
    <glyph glyph-name="word2" unicode="&#59368;" d="M624.128 352.256h223.744v-64h-223.744V352.256zM624.128 480.256h223.744V415.744h-223.744v64.512zM624.128 224.256h223.744v-64h-223.744V224.256zM926.208 693.76l-121.856 121.856c-26.624 26.624-78.848 48.128-116.736 48.128h-409.6c-37.376 0-68.096-30.72-68.096-68.096v-137.728h54.784v137.728c0 7.168 6.144 13.824 13.824 13.824h409.6c4.096 0 8.704-0.512 13.824-1.536v-217.088h217.088c1.024-5.12 1.536-31.744 1.536-35.84V-27.648c0-7.168-6.144-13.824-13.824-13.824H278.528c-7.68 0-13.824 6.144-13.824 13.824v45.568H209.92v-45.568c0-37.376 30.72-68.096 68.096-68.096H906.24c37.376 0 68.096 30.72 68.096 68.096V555.008c0 37.376-21.504 112.128-48.128 138.752z m-169.984-48.128v139.264c3.584-2.56 7.168-5.12 9.728-7.68L887.296 655.36c2.56-2.56 5.12-6.144 8.192-9.728h-139.264zM49.664 593.92V81.92h512V593.92h-512z m345.6-367.616H343.04c-17.408 58.88-29.184 98.816-35.84 119.808 0 1.024-0.512 2.048-1.536 3.584-2.048 11.776-3.072 20.48-3.072 25.6h-1.536c0-1.536-0.512-4.096-1.536-7.68-1.024-9.216-2.56-16.384-5.12-21.504-7.68-21.504-20.48-61.44-39.424-119.808h-52.224L121.856 421.888h55.808c22.016-64.512 36.352-106.496 44.032-124.928 2.048-6.656 4.096-14.336 6.656-23.04 2.048 8.704 4.096 16.384 6.656 23.04 8.704 25.6 21.504 67.072 37.376 124.928h55.808c22.016-73.216 33.792-114.688 35.84-124.928 2.048-6.656 4.096-14.336 6.656-23.04 2.048 8.704 4.096 16.384 6.656 23.04 9.728 25.6 26.112 67.072 49.152 124.928h55.808l-87.04-195.584z"  horiz-adv-x="1024" />

    
    <glyph glyph-name="chuangjianricheng-" unicode="&#59091;" d="M986.05056 790.99904h-176.66048a0.59392 0.59392 0 0 0-0.59392 0.59392V819.22048c0 20.64384-16.87552 39.75168-37.49888 38.912a35.69664 35.69664 0 0 1-34.42688-36.20864v-30.35136a0.59392 0.59392 0 0 0-0.59392-0.59392H297.02144a0.59392 0.59392 0 0 0-0.59392 0.59392v27.648c0 20.64384-16.87552 39.75168-37.49888 38.912a35.69664 35.69664 0 0 1-34.42688-36.20864v-30.35136a0.59392 0.59392 0 0 0-0.59392-0.59392H41.10336c-20.33664 0-36.82304-16.4864-36.82304-36.82304v-807.79264a36.6592 36.6592 0 0 1 36.5568-36.5568h945.19296c20.33664 0 36.82304 16.4864 36.82304 36.82304V754.176a36.80256 36.80256 0 0 1-36.80256 36.82304zM465.73568 143.36H278.9376a40.96 40.96 0 1 0 0 81.92h186.79808a40.96 40.96 0 1 0 0-81.92zM748.21632 302.08H278.9376a40.96 40.96 0 1 0 0 81.92h469.25824a40.96 40.96 0 1 0 0.02048-81.92z m203.59168 323.33824a0.59392 0.59392 0 0 0-0.59392-0.59392H76.82048a0.59392 0.59392 0 0 0-0.59392 0.59392V717.94688c0 0.32768 0.26624 0.59392 0.59392 0.59392h147.10784c0.32768 0 0.59392-0.26624 0.59392-0.59392v-16.13824c0-20.64384 16.87552-39.75168 37.49888-38.912a35.69664 35.69664 0 0 1 34.42688 36.20864v19.41504h439.82848c0.32768 0 0.59392-0.26624 0.59392-0.59392v-16.13824c0-20.64384 16.87552-39.75168 37.49888-38.912a35.69664 35.69664 0 0 1 34.42688 36.20864v19.43552h142.41792c0.32768 0 0.59392-0.26624 0.59392-0.59392v-92.50816z"  horiz-adv-x="1024" />

    
    <glyph glyph-name="daohangricheng-" unicode="&#59093;" d="M894.19776 808.67328h-127.40608V893.60384h-42.47552v-84.93056H299.66336V893.60384h-42.47552v-84.93056h-127.3856a84.91008 84.91008 0 0 1-84.93056-84.93056v-764.416a84.91008 84.91008 0 0 1 84.93056-84.93056H894.23872a84.91008 84.91008 0 0 1 84.93056 84.93056V723.74272a84.95104 84.95104 0 0 1-84.97152 84.93056zM332.67712 90.19392a32.5632 32.5632 0 0 0-32.5632-32.5632h-65.14688a32.5632 32.5632 0 0 0-32.5632 32.5632v65.14688c0 17.98144 14.60224 32.5632 32.5632 32.5632h65.14688c17.98144 0 32.5632-14.60224 32.5632-32.5632v-65.14688z m0 214.40512a32.5632 32.5632 0 0 0-32.5632-32.5632h-65.14688a32.5632 32.5632 0 0 0-32.5632 32.5632v65.14688c0 17.98144 14.60224 32.5632 32.5632 32.5632h65.14688c17.98144 0 32.5632-14.60224 32.5632-32.5632v-65.14688z m244.46976-214.40512a32.5632 32.5632 0 0 0-32.5632-32.5632H479.4368a32.5632 32.5632 0 0 0-32.5632 32.5632v65.14688c0 17.98144 14.60224 32.5632 32.5632 32.5632h65.14688c17.98144 0 32.5632-14.60224 32.5632-32.5632v-65.14688z m0 214.40512a32.5632 32.5632 0 0 0-32.5632-32.5632H479.4368a32.5632 32.5632 0 0 0-32.5632 32.5632v65.14688c0 17.98144 14.60224 32.5632 32.5632 32.5632h65.14688c17.98144 0 32.5632-14.60224 32.5632-32.5632v-65.14688z m244.44928 0a32.5632 32.5632 0 0 0-32.5632-32.5632h-65.14688a32.5632 32.5632 0 0 0-32.5632 32.5632v65.14688c0 17.98144 14.60224 32.5632 32.5632 32.5632h65.14688c17.98144 0 32.5632-14.60224 32.5632-32.5632v-65.14688z m115.07712 275.68128H87.32672V723.74272c0 23.40864 19.06688 42.47552 42.47552 42.47552h127.40608v-84.93056h42.47552V766.19776h424.67328v-84.93056h42.47552V766.19776h127.40608c23.40864 0 42.47552-19.06688 42.47552-42.47552v-143.44192z"  horiz-adv-x="1024" />

    
    <glyph glyph-name="shang1" unicode="&#59053;" d="M712.27904 255.98976l-204.8 256-204.8-256z"  horiz-adv-x="1024" />

    
    <glyph glyph-name="xia" unicode="&#59055;" d="M302.67904 511.98976l204.8-256 204.8 256z"  horiz-adv-x="1024" />

    
    <glyph glyph-name="xia1" unicode="&#58885;" d="M222.961 560.735l282.796-353.495 282.796 353.495z"  horiz-adv-x="1024" />

    
    <glyph glyph-name="tongxunlu" unicode="&#59000;" d="M870.4 896H153.6C106.666667 896 64 853.333333 64 802.133333v-132.266666c0-12.8 8.533333-21.333333 21.333333-21.333334h29.866667c12.8-4.266667 17.066667-8.533333 17.066667-17.066666s-8.533333-17.066667-17.066667-17.066667H85.333333c-12.8 0-21.333333-8.533333-21.333333-21.333333v-170.666667c0-12.8 8.533333-21.333333 21.333333-21.333333h29.866667c8.533333 0 17.066667-8.533333 17.066667-17.066667s-4.266667-17.066667-12.8-17.066667H85.333333c-12.8 0-21.333333-8.533333-21.333333-21.333333v-170.666667c0-12.8 8.533333-21.333333 21.333333-21.333333h29.866667c8.533333 0 17.066667-8.533333 17.066667-17.066667s-8.533333-17.066667-17.066667-17.066666H85.333333c-12.8 0-21.333333-8.533333-21.333333-21.333334v-132.266666c0-51.2 42.666667-93.866667 89.6-93.866667h712.533333c51.2 0 89.6 42.666667 89.6 93.866667V802.133333c4.266667 51.2-38.4 93.866667-85.333333 93.866667zM106.666667-34.133333v110.933333h8.533333c34.133333 0 59.733333 25.6 59.733333 59.733333s-25.6 59.733333-59.733333 59.733334h-8.533333v128h8.533333c34.133333 0 59.733333 25.6 59.733333 59.733333s-25.6 59.733333-59.733333 59.733333h-8.533333v128h8.533333c34.133333 0 59.733333 25.6 59.733333 59.733334 0 34.133333-25.6 59.733333-59.733333 59.733333h-8.533333V802.133333C106.666667 827.733333 128 853.333333 153.6 853.333333h98.133333v-938.666666H153.6c-25.6 0-46.933333 25.6-46.933333 51.2z m810.666666 0c0-29.866667-21.333333-51.2-46.933333-51.2H294.4V853.333333h576c25.6 0 46.933333-25.6 46.933333-51.2v-836.266666zM695.466667 315.733333c42.666667 29.866667 72.533333 76.8 72.533333 132.266667 0 85.333333-72.533333 157.866667-157.866667 157.866667s-157.866667-72.533333-157.866666-157.866667c0-55.466667 29.866667-102.4 72.533333-132.266667-55.466667-21.333333-102.4-68.266667-128-128-4.266667-12.8 0-21.333333 12.8-25.6 12.8-4.266667 21.333333 0 25.6 12.8 29.866667 72.533333 93.866667 119.466667 170.666667 119.466667 76.8 0 145.066667-46.933333 170.666666-119.466667 4.266667-8.533333 12.8-12.8 21.333334-12.8h8.533333c12.8 4.266667 17.066667 17.066667 12.8 25.6-21.333333 64-68.266667 106.666667-123.733333 128z m-200.533334 132.266667c0 64 51.2 115.2 115.2 115.2 64 0 115.2-51.2 115.2-115.2s-51.2-115.2-115.2-115.2c-64 4.266667-115.2 55.466667-115.2 115.2z"  horiz-adv-x="1024" />

    
    </font>
</defs>
</svg>
